{
.appVersion = "3343";
.formatVersion = 3;
DisplayStrings = (
"ÀÀÁÁÂÂÃÃÄÄÅÅÇÇÈÈÉÉÊÊËËÌÌÍÍÎÎÏÏÑÑÒÒÓÓÔÔÕÕÖÖÙÙÚÚÛÛÜÜÝÝààááââããääååççèèééêêëëììííîîïïññòòóóôôõõööùùúúûûüüýýÿÿĀĀĂĂĄĄǺǺĆĆĈĈĊĊČČĎĎĒĒĔĔĖĖĘĘĚĚĜĜĞĞĠĠǦǦǴǴĤĤĨĨĪĪĬĬĮĮǾǾĐĐāāăăąąǻǻććĉĉċċččďēēĕĕėėęęěěĝĝğğġġǧǧǵǵĥĥĩĩīīĭĭįįōōŏŏőőǫǫũũūūŭŭůůűűųųŷŷȳȳđđ
Ñ
Ò
Ó
Ô
Õ
Ö
Ù
Ú
Û
Ü
Ý
Ø
ñ

"
);
customParameters = (
{
name = glyphOrder;
value = (
space,
exclam,
quotesingle,
quotedbl,
numbersign,
dollar,
percent,
ampersand,
parenleft,
parenright,
asterisk,
plus,
comma,
hyphen,
period,
slash,
zero,
one,
two,
three,
four,
five,
six,
seven,
eight,
nine,
colon,
semicolon,
less,
equal,
greater,
question,
at,
A,
B,
C,
D,
E,
F,
G,
H,
I,
J,
K,
L,
M,
N,
O,
P,
Q,
R,
S,
T,
U,
V,
W,
X,
Y,
Z,
bracketleft,
backslash,
bracketright,
asciicircum,
underscore,
grave,
a,
b,
c,
d,
e,
f,
g,
h,
i,
j,
k,
l,
m,
n,
o,
p,
q,
r,
s,
t,
u,
v,
w,
x,
y,
z,
braceleft,
bar,
braceright,
asciitilde,
exclamdown,
cent,
sterling,
currency,
yen,
brokenbar,
section,
dieresis,
copyright,
ordfeminine,
guillemetleft,
logicalnot,
registered,
macron,
degree,
plusminus,
twosuperior,
threesuperior,
acute,
mu,
paragraph,
periodcentered,
cedilla,
onesuperior,
ordmasculine,
guillemetright,
onequarter,
onehalf,
threequarters,
questiondown,
Agrave,
Aacute,
Acircumflex,
Atilde,
Adieresis,
Aring,
AE,
Ccedilla,
Egrave,
Eacute,
Ecircumflex,
Edieresis,
Igrave,
Iacute,
Icircumflex,
Idieresis,
Eth,
Ntilde,
Ograve,
Oacute,
Ocircumflex,
Otilde,
Odieresis,
multiply,
Oslash,
Ugrave,
Uacute,
Ucircumflex,
Udieresis,
Yacute,
Thorn,
germandbls,
agrave,
aacute,
acircumflex,
atilde,
adieresis,
aring,
ae,
ccedilla,
egrave,
eacute,
ecircumflex,
edieresis,
igrave,
iacute,
icircumflex,
idieresis,
eth,
ntilde,
ograve,
oacute,
ocircumflex,
otilde,
odieresis,
divide,
oslash,
ugrave,
uacute,
ucircumflex,
udieresis,
yacute,
thorn,
ydieresis,
dotlessi,
circumflex,
caron,
breve,
dotaccent,
ring,
ogonek,
tilde,
hungarumlaut,
quoteleft,
quoteright,
minus,
Amacron,
Abreve,
Aogonek,
Aringacute,
Cacute,
Ccircumflex,

glyphs = (
{
glyphname = exclam;
layers = (
{
layerId = m001;
shapes = (
{
closed = 1;
nodes = (
(115,157,l),
(168,157,l),
(178,750,l),
(104,750,l)
);
},
{
closed = 1;
nodes = (
(85,20,o),
(110,-5,o),
(141,-5,cs),
(171,-5,o),
(197,20,o),
(197,51,cs),
(197,81,o),
(171,107,o),
(141,107,cs),
(110,107,o),
(85,81,o),
(85,51,cs)
);
}
);
width = 278;
}
);
unicode = 33;
},
{
glyphname = quotesingle;
layers = (
{
layerId = m001;
shapes = (
{
closed = 1;
nodes = (
(119,749,l),
(183,750,l),
(112,538,l),
(59,538,l),
(57,538,l)
);
}
);
userData = {
public.truetype.instructions = {
assembly = "RTG[ ]	/* RoundToGrid */
SVTCA[1]	/* SetFPVectorToAxis */
PUSHB[ ]	/* 1 value pushed */
0
NPUSHB[ ]	/* 2 values pushed */
4 1
NPUSHW[ ]	/* 4 values pushed */
122 2 0 0
CALL[ ]	/* CallFunction */
IUP[1]	/* InterpolateUntPts */
RTG[ ]	/* RoundToGrid */
SVTCA[0]	/* SetFPVectorToAxis */
NPUSHB[ ]	/* 2 values pushed */
2 1
NPUSHB[ ]	/* 3 values pushed */
3 4 2
NPUSHW[ ]	/* 4 values pushed */
212 1 0 0
CALL[ ]	/* CallFunction */
IUP[0]	/* InterpolateUntPts */";
formatVersion = "1";
id = "w250l57-108l123+104l179+104l113-108l57-108|";
};
};
width = 250;
}
);
unicode = 39;
},
{
glyphname = quotedbl;
layers = (
{
layerId = m001;
shapes = (
{
closed = 1;
nodes = (
(114,750,l),
(170,750,l),
(104,538,l),
(48,538,l),
(48,538,l)
);
},
{
closed = 1;
nodes = (
(254,750,l),
(310,750,l),
(244,538,l),
(188,538,l),
(188,538,l)
);
}
);
userData = {
public.truetype.instructions = {
assembly = "RTG[ ]	/* RoundToGrid */
SVTCA[1]	/* SetFPVectorToAxis */
PUSHB[ ]	/* 1 value pushed */
0
NPUSHB[ ]	/* 2 values pushed */
4 1
NPUSHW[ ]	/* 4 values pushed */
122 2 0 0
CALL[ ]	/* CallFunction */
IUP[1]	/* InterpolateUntPts */
RTG[ ]	/* RoundToGrid */
SVTCA[0]	/* SetFPVectorToAxis */
NPUSHB[ ]	/* 2 values pushed */
2 1
NPUSHB[ ]	/* 3 values pushed */
3 4 2
NPUSHW[ ]	/* 4 values pushed */
212 1 0 0
CALL[ ]	/* CallFunction */
IUP[0]	/* InterpolateUntPts */";
formatVersion = "1";
id = "w250l57-108l123+104l179+104l113-108l57-108|";
};
};
width = 358;
}
);
unicode = 34;
},
{
glyphname = numbersign;
layers = (
{
layerId = m001;
shapes = (
{
closed = 1;
nodes = (
(350,303,l),
(374,478,l),
(497,478,l),
(493,529,l),
(380,529,l),
(416,781,l),
(361,781,l),
(325,529,l),
(170,529,l),
(205,781,l),
(149,781,l),
(114,529,l),
(-19,529,l),
(-15,478,l),
(107,478,l),
(83,303,l),
(-50,303,l),
(-45,252,l),
(76,252,l),
(41,0,l),
(96,0,l),
(131,252,l),
(288,252,l),
(252,0,l),
(307,0,l),
(343,252,l),
(466,252,l),
(462,303,l)
);
},
{
closed = 1;
nodes = (
(295,303,l),
(139,303,l),
(163,478,l),
(319,478,l)
);
}
);
width = 500;
}
);
unicode = 35;
},
{
glyphname = dollar;
layers = (
{
layerId = m001;
shapes = (
{
closed = 1;
nodes = (
(161,414,o),
(89,455,o),
(89,534,cs),
(89,620,o),
(147,666,o),
(228,665,c),
(228,403,l)
);
},
{
closed = 1;
nodes = (
(359,324,o),
(442,285,o),
(442,189,cs),
(442,95,o),
(367,41,o),
(279,44,c),
(279,345,l)
);
},
{
closed = 1;
nodes = (
(136,58,o),
(87,167,o),
(71,251,c),
(26,251,l),
(26,0,l),
(76,0,l),
(76,118,l),
(78,118,l),
(104,58,o),
(161,0,o),
(228,0,c),
(228,-92,l),
(279,-92,l),
(279,-4,l),
(388,-4,o),
(492,67,o),
(492,182,cs),
(492,319,o),
(401,370,o),
(279,393,c),
(279,662,l),
(352,645,o),
(398,584,o),
(416,516,c),
(458,516,l),
(458,709,l),
(408,709,l),
(408,624,l),
(406,624,l),
(377,667,o),
(334,700,o),
(279,710,c),
(279,781,l),
(228,781,l),
(228,713,l),
(130,713,o),
(39,640,o),
(39,536,cs),
(39,422,o),
(132,373,o),
(228,355,c),
(228,48,l)
);
}
);
width = 500;
}
);
unicode = 36;
},
{
glyphname = percent;
layers = (
{
layerId = m001;
shapes = (
{
closed = 1;
nodes = (
(209,0,l),
(691,750,l),
(624,750,l),
(143,0,l)
);
},
{
closed = 1;
nodes = (
(557,45,o),
(516,98,o),
(516,164,cs),
(516,228,o),
(558,282,o),
(623,282,cs),
(688,282,o),
(734,229,o),
(734,164,cs),
(734,97,o),
(690,45,o),
(624,45,cs)
);
},
{
closed = 1;
nodes = (
(155,469,o),
(111,521,o),
(111,587,cs),
(111,652,o),
(155,705,o),
(220,705,cs),
(284,705,o),
(328,652,o),
(328,587,cs),
(328,522,o),
(284,469,o),
(220,469,cs)
);
},
{
closed = 1;
nodes = (
(533,327,o),
(462,254,o),
(462,164,cs),
(462,73,o),
(535,0,o),
(625,0,cs),
(715,0,o),
(789,73,o),
(789,164,cs),
(789,254,o),
(712,327,o),
(623,327,cs)
);
},
{
closed = 1;
nodes = (
(308,425,o),
(383,495,o),
(383,587,cs),
(383,677,o),
(309,750,o),
(220,750,cs),
(130,750,o),
(56,677,o),
(56,587,cs),
(56,497,o),
(127,425,o),
(217,425,cs)
);
}
);
width = 833;
}
);
unicode = 37;
},
{
glyphname = ampersand;
layers = (
{
layerId = m001;
shapes = (
{
closed = 1;
nodes = (
(375,107,o),
(295,40,o),
(210,40,cs),
(139,40,o),
(87,93,o),
(87,162,cs),
(87,241,o),
(192,335,o),
(240,377,c),
(428,166,l)
);
},
{
closed = 1;
nodes = (
(218,493,o),
(174,535,o),
(174,588,cs),
(174,647,o),
(204,700,o),
(268,700,cs),
(322,700,o),
(366,658,o),
(366,603,cs),
(366,533,o),
(300,498,o),
(250,453,c)
);
},
{
closed = 1;
nodes = (
(695,1,l),
(695,50,l),
(608,50,l),
(502,169,l),
(557,236,o),
(595,312,o),
(625,395,c),
(687,395,l),
(687,445,l),
(495,445,l),
(495,395,l),
(563,395,l),
(543,325,o),
(508,265,o),
(464,209,c),
(283,413,l),
(345,469,o),
(422,512,o),
(422,602,cs),
(422,682,o),
(354,750,o),
(275,750,cs),
(183,750,o),
(118,687,o),
(118,594,cs),
(118,513,o),
(161,480,o),
(208,419,c),
(137,360,o),
(31,273,o),
(31,166,cs),
(31,70,o),
(103,-10,o),
(206,-10,cs),
(315,-10,o),
(397,48,o),
(467,125,c),
(581,1,l)
);
}
);
width = 722;
}
);
unicode = 38;
},
{
glyphname = parenleft;
layers = (
{
layerId = m001;
shapes = (
{
closed = 1;
nodes = (
(84,642,o),
(34,503,o),
(34,327,cs),
(34,177,o),
(98,12,o),
(196,-103,c),
(234,-71,l),
(133,64,o),
(89,192,o),
(89,340,cs),
(89,503,o),
(147,638,o),
(234,750,c),
(193,781,l)
);
}
);
width = 278;
}
);
unicode = 40;
},
{
glyphname = parenright;
layers = (
{
layerId = m001;
shapes = (
{
closed = 1;
nodes = (
(44,750,l),
(131,638,o),
(189,503,o),
(189,340,cs),
(189,192,o),
(145,64,o),
(44,-71,c),
(82,-103,l),
(180,12,o),
(244,177,o),
(244,327,cs),
(244,503,o),
(194,642,o),
(85,781,c)
);
}
);
width = 278;
}
);
unicode = 41;
},
{
glyphname = asterisk;
layers = (
{
layerId = m001;
shapes = (
{
closed = 1;
nodes = (
(162,598,l),
(59,634,l),
(75,675,l),
(177,642,l),
(176,749,l),
(224,749,l),
(225,640,l),
(323,675,l),
(338,631,l),
(233,596,l),
(296,504,l),
(258,478,l),
(197,570,l),
(132,485,l),
(96,514,l),
(96,514,l)
);
}
);
userData = {
public.truetype.instructions = {
assembly = "RTG[ ]	/* RoundToGrid */
SVTCA[1]	/* SetFPVectorToAxis */
PUSHB[ ]	/* 1 value pushed */
0
PUSHB[ ]	/* 1 value pushed */
0
NPUSHW[ ]	/* 4 values pushed */
280 9 2 0
CALL[ ]	/* CallFunction */
NPUSHB[ ]	/* 2 values pushed */
7 1
NPUSHB[ ]	/* 2 values pushed */
5 1
NPUSHW[ ]	/* 4 values pushed */
50 6 4 0
CALL[ ]	/* CallFunction */
IUP[1]	/* InterpolateUntPts */
RTG[ ]	/* RoundToGrid */
SVTCA[0]	/* SetFPVectorToAxis */
NPUSHB[ ]	/* 2 values pushed */
6 1
PUSHB[ ]	/* 1 value pushed */
0
NPUSHW[ ]	/* 4 values pushed */
272 5 12 0
CALL[ ]	/* CallFunction */
PUSHW[ ]	/* 1 value pushed */
12
PUSHB[ ]	/* 1 value pushed */
0
MIAP[1]	/* MoveIndirectAbsPt */
NPUSHB[ ]	/* 5 values pushed */
0 11 14 15 4
PUSHB[ ]	/* 1 value pushed */
1
LOOPCALL[ ]	/* LoopAndCallFunction */
PUSHW[ ]	/* 1 value pushed */
5
PUSHB[ ]	/* 1 value pushed */
1
MIAP[1]	/* MoveIndirectAbsPt */
NPUSHB[ ]	/* 2 values pushed */
6 1
PUSHB[ ]	/* 1 value pushed */
1
LOOPCALL[ ]	/* LoopAndCallFunction */
IUP[0]	/* InterpolateUntPts */";
formatVersion = "1";
id = 09642d99229fa4047a996be9ea127db77b149048844eeac3e9f5040aad879212901bd52e992db5ba1418597cf9c1f2894d3df43c26234258731c07d03bbc66ae;
};
};
width = 389;
}
);
unicode = 42;
},
{
glyphname = plus;
layers = (
{
layerId = m001;
shapes = (
{
closed = 1;
nodes = (
(393,257,l),
(393,207,l),
(43,207,l),
(43,257,l),
(43,257,l)
);
},
{
closed = 1;
nodes = (
(393,257,l),
(393,207,l),
(43,207,l),
(43,257,l),
(43,257,l)
);
},
{
closed = 1;
nodes = (
(193,407,l),
(243,407,l),
(243,57,l),
(193,57,l),
(193,57,l)
);
},
{
closed = 1;
nodes = (
(193,407,l),
(243,407,l),
(243,57,l),
(193,57,l),
(193,57,l)
);
}
);
width = 436;
}
);
unicode = 43;
},
{
glyphname = comma;
layers = (
{
layerId = m001;
shapes = (
{
closed = 1;
nodes = (
(71,104,l),
(127,104,l),
(61,-108,l),
(5,-108,l),
(5,-108,l)
);
}
);
userData = {
public.truetype.instructions = {
assembly = "RTG[ ]	/* RoundToGrid */
SVTCA[1]	/* SetFPVectorToAxis */
PUSHB[ ]	/* 1 value pushed */
0
NPUSHB[ ]	/* 2 values pushed */
4 1
NPUSHW[ ]	/* 4 values pushed */
122 2 0 0
CALL[ ]	/* CallFunction */
IUP[1]	/* InterpolateUntPts */
RTG[ ]	/* RoundToGrid */
SVTCA[0]	/* SetFPVectorToAxis */
NPUSHB[ ]	/* 2 values pushed */
2 1
NPUSHB[ ]	/* 3 values pushed */
3 4 2
NPUSHW[ ]	/* 4 values pushed */
212 1 0 0
CALL[ ]	/* CallFunction */
IUP[0]	/* InterpolateUntPts */";
formatVersion = "1";
id = "w250l57-108l123+104l179+104l113-108l57-108|";
};
};
width = 198;
}
);
unicode = 44;
},
{
glyphname = hyphen;
layers = (
{
layerId = m001;
shapes = (
{
closed = 1;
nodes = (
(292,257,l),
(292,207,l),
(44,207,l),
(44,257,l),
(44,257,l)
);
}
);
userData = {
public.truetype.instructions = {
assembly = "RTG[ ]	/* RoundToGrid */
SVTCA[1]	/* SetFPVectorToAxis */
NPUSHB[ ]	/* 2 values pushed */
2 1
NPUSHB[ ]	/* 3 values pushed */
3 4 2
NPUSHW[ ]	/* 4 values pushed */
248 1 0 0
CALL[ ]	/* CallFunction */
IUP[1]	/* InterpolateUntPts */
RTG[ ]	/* RoundToGrid */
SVTCA[0]	/* SetFPVectorToAxis */
NPUSHB[ ]	/* 3 values pushed */
1 4 2
NPUSHB[ ]	/* 2 values pushed */
3 1
NPUSHW[ ]	/* 4 values pushed */
46 0 2 0
CALL[ ]	/* CallFunction */
IUP[0]	/* InterpolateUntPts */";
formatVersion = "1";
id = "w333l42+257l290+257l290+207l42+207l42+257|";
};
};
width = 336;
}
);
unicode = 45;
},
{
glyphname = period;
layers = (
{
layerId = m001;
shapes = (
{
closed = 1;
nodes = (
(71,70,o),
(103,102,o),
(125,102,q),
(147,102,o),
(179,70,o),
(179,48,q),
(179,26,o),
(147,-5,o),
(125,-5,q),
(103,-5,o),
(71,26,o),
(71,48,q),
(71,49,l)
);
}
);
userData = {
public.truetype.instructions = {
assembly = "RTG[ ]	/* RoundToGrid */
SVTCA[1]	/* SetFPVectorToAxis */
PUSHB[ ]	/* 1 value pushed */
0
NPUSHB[ ]	/* 2 values pushed */
12 1
NPUSHW[ ]	/* 4 values pushed */
108 6 0 0
CALL[ ]	/* CallFunction */
IUP[1]	/* InterpolateUntPts */
RTG[ ]	/* RoundToGrid */
SVTCA[0]	/* SetFPVectorToAxis */
PUSHB[ ]	/* 1 value pushed */
0
PUSHB[ ]	/* 1 value pushed */
0
NPUSHW[ ]	/* 4 values pushed */
108 3 9 0
CALL[ ]	/* CallFunction */
PUSHW[ ]	/* 1 value pushed */
9
PUSHB[ ]	/* 1 value pushed */
4
MIAP[1]	/* MoveIndirectAbsPt */
NPUSHB[ ]	/* 4 values pushed */
0 6 12 3
PUSHB[ ]	/* 1 value pushed */
1
LOOPCALL[ ]	/* LoopAndCallFunction */
IUP[0]	/* InterpolateUntPts */";
formatVersion = "1";
id = "w250l71+49o71+70o103+102q125+102o147+102o179+70q179+48o179+26o147-5q125-5o103-5o71+26q71+48|";
};
};
width = 250;
}
);
unicode = 46;
},
{
glyphname = slash;
layers = (
{
layerId = m001;
shapes = (
{
closed = 1;
nodes = (
(46,-16,l),
(289,763,l),
(241,763,l),
(-2,-16,l)
);
}
);
width = 288;
}
);
unicode = 47;
},
{
glyphname = zero;
layers = (
{
guides = (
{
pos = (2910,-155);
userData = {
UFO.identifier = bFmKpgocn7;
};
}
);
layerId = m001;
shapes = (
{
closed = 1;
nodes = (
(423,-12,o),
(533,140,o),
(533,373,cs),
(533,603,o),
(423,756,o),
(283,756,cs),
(140,756,o),
(30,604,o),
(30,371,cs),
(30,141,o),
(139,-12,o),
(280,-12,cs)
);
},
{
closed = 1;
nodes = (
(165,47,o),
(88,178,o),
(88,373,cs),
(88,567,o),
(165,698,o),
(281,698,cs),
(398,698,o),
(475,566,o),
(475,371,cs),
(475,177,o),
(398,47,o),
(281,47,cs)
);
}
);
width = 563;
}
);
unicode = 48;
},
{
glyphname = one;
layers = (
{
layerId = m001;
shapes = (
{
closed = 1;
nodes = (
(291,50,l),
(200,50,l),
(200,750,l),
(139,750,l),
(51,718,l),
(51,670,l),
(139,689,l),
(139,50,l),
(48,50,l),
(48,0,l),
(291,0,l)
);
}
);
userData = {
public.truetype.instructions = {
assembly = "RTG[ ]	/* RoundToGrid */
SVTCA[1]	/* SetFPVectorToAxis */
NPUSHB[ ]	/* 2 values pushed */
8 1
NPUSHB[ ]	/* 2 values pushed */
4 1
NPUSHW[ ]	/* 4 values pushed */
50 7 3 0
CALL[ ]	/* CallFunction */
IUP[1]	/* InterpolateUntPts */
RTG[ ]	/* RoundToGrid */
SVTCA[0]	/* SetFPVectorToAxis */
NPUSHB[ ]	/* 2 values pushed */
7 1
NPUSHB[ ]	/* 2 values pushed */
5 1
NPUSHW[ ]	/* 4 values pushed */
46 6 4 0
CALL[ ]	/* CallFunction */
NPUSHB[ ]	/* 4 values pushed */
3 8 9 3
NPUSHB[ ]	/* 3 values pushed */
1 10 2
NPUSHW[ ]	/* 4 values pushed */
46 2 0 0
CALL[ ]	/* CallFunction */
PUSHW[ ]	/* 1 value pushed */
6
PUSHB[ ]	/* 1 value pushed */
1
MIAP[1]	/* MoveIndirectAbsPt */
NPUSHB[ ]	/* 2 values pushed */
7 1
PUSHB[ ]	/* 1 value pushed */
1
LOOPCALL[ ]	/* LoopAndCallFunction */
PUSHW[ ]	/* 1 value pushed */
0
PUSHB[ ]	/* 1 value pushed */
4
MIAP[1]	/* MoveIndirectAbsPt */
NPUSHB[ ]	/* 7 values pushed */
1 2 3 8 9 10 6
PUSHB[ ]	/* 1 value pushed */
1
LOOPCALL[ ]	/* LoopAndCallFunction */
IUP[0]	/* InterpolateUntPts */";
formatVersion = "1";
id = "w500l370+0l141+0l141+46l230+46l230+660l144+660l144+706l282+706l282+46l370+46l370+0|";
};
};
width = 339;
}
);
unicode = 49;
},
{
glyphname = two;
layers = (
{
layerId = m001;
shapes = (
{
closed = 1;
nodes = (
(49,0,l),
(49,48,l),
(305,352,ls),
(311,359,o),
(325,375,o),
(332,384,q),
(361,422,o),
(410,502,o),
(413,552,q),
(413,555,o),
(413,560,o),
(413,563,q),
(413,632,o),
(328,706,o),
(261,706,q),
(193,706,o),
(99,615,o),
(99,550,q),
(97,501,l),
(50,501,l),
(50,541,l),
(50,633,o),
(167,750,o),
(261,750,q),
(341,750,o),
(463,653,o),
(463,567,q),
(463,504,o),
(396,385,o),
(354,333,q),
(337,313,o),
(305,276,o),
(290,259,q),
(120,58,l),
(430,58,l),
(430,181,l),
(484,181,l),
(484,0,l),
(484,0,l)
);
}
);
width = 533;
}
);
unicode = 50;
},
{
glyphname = three;
layers = (
{
layerId = m001;
shapes = (
{
closed = 1;
nodes = (
(108,577,l),
(55,587,l)
);
},
{
closed = 1;
nodes = (
(60,69,o),
(134,-1,o),
(250,-1,cs),
(365,-1,o),
(455,83,o),
(455,209,cs),
(455,296,o),
(410,359,o),
(328,389,c),
(402,417,o),
(451,475,o),
(451,558,cs),
(451,660,o),
(363,750,o),
(250,750,cs),
(147,750,o),
(75,688,o),
(55,587,c),
(108,577,l),
(122,643,o),
(166,700,o),
(250,700,cs),
(330,700,o),
(395,648,o),
(395,554,cs),
(395,484,o),
(344,429,o),
(279,415,cs),
(256,410,o),
(232,409,o),
(209,409,c),
(209,362,l),
(223,362,o),
(243,361,o),
(264,359,cs),
(342,351,o),
(399,300,o),
(399,206,cs),
(399,114,o),
(338,49,o),
(250,49,cs),
(159,49,o),
(105,105,o),
(93,183,c),
(42,167,l)
);
},
{
closed = 1;
nodes = (
(93,183,l),
(42,167,l)
);
}
);
width = 516;
}
);
unicode = 51;
},
{
glyphname = four;
layers = (
{
layerId = m001;
shapes = (
{
closed = 1;
nodes = (
(263,0,l),
(263,49,l),
(360,49,l),
(360,202,l),
(48,202,l),
(48,249,l),
(359,750,l),
(416,750,l),
(416,251,l),
(507,251,l),
(507,202,l),
(416,202,l),
(416,49,l),
(509,49,l),
(509,0,l),
(509,0,l)
);
},
{
closed = 1;
nodes = (
(110,251,l),
(360,251,l),
(360,651,l),
(358,651,l),
(358,651,l)
);
}
);
userData = {
public.truetype.instructions = {
assembly = "RTG[ ]	/* RoundToGrid */
SVTCA[1]	/* SetFPVectorToAxis */
NPUSHB[ ]	/* 4 values pushed */
9 12 13 3
NPUSHB[ ]	/* 4 values pushed */
4 18 19 3
NPUSHW[ ]	/* 4 values pushed */
50 8 3 0
CALL[ ]	/* CallFunction */
IUP[1]	/* InterpolateUntPts */
RTG[ ]	/* RoundToGrid */
SVTCA[0]	/* SetFPVectorToAxis */
NPUSHB[ ]	/* 4 values pushed */
10 17 18 3
NPUSHB[ ]	/* 4 values pushed */
5 11 12 3
NPUSHW[ ]	/* 4 values pushed */
46 9 4 0
CALL[ ]	/* CallFunction */
NPUSHB[ ]	/* 4 values pushed */
3 13 14 3
NPUSHB[ ]	/* 3 values pushed */
1 15 2
NPUSHW[ ]	/* 4 values pushed */
46 2 0 0
CALL[ ]	/* CallFunction */
PUSHW[ ]	/* 1 value pushed */
7
PUSHB[ ]	/* 1 value pushed */
1
MIAP[1]	/* MoveIndirectAbsPt */
NPUSHB[ ]	/* 2 values pushed */
8 1
PUSHB[ ]	/* 1 value pushed */
1
LOOPCALL[ ]	/* LoopAndCallFunction */
PUSHW[ ]	/* 1 value pushed */
0
PUSHB[ ]	/* 1 value pushed */
4
MIAP[1]	/* MoveIndirectAbsPt */
NPUSHB[ ]	/* 7 values pushed */
1 2 3 13 14 15 6
PUSHB[ ]	/* 1 value pushed */
1
LOOPCALL[ ]	/* LoopAndCallFunction */
IUP[0]	/* InterpolateUntPts */";
formatVersion = "1";
id = e829a64f9e95c2850b708d7de0479f6591d11381ddd39f804319e88b49689c4d5fdb1a9d5cd985258b93685681c82de7221611edd27c7c664bc8b479d1bf5cae;
};
};
width = 557;
}
);
unicode = 52;
},
{
glyphname = five;
layers = (
{
layerId = m001;
shapes = (
{
closed = 1;
nodes = (
(86,108,o),
(49,62,o),
(48,64,c),
(88,106,l)
);
},
{
closed = 1;
nodes = (
(91,23,o),
(156,0,o),
(230,0,cs),
(362,0,o),
(467,96,o),
(467,231,cs),
(467,370,o),
(370,475,o),
(227,464,c),
(191,466,o),
(171,451,o),
(139,429,c),
(139,697,l),
(426,697,l),
(426,750,l),
(79,750,l),
(79,386,l),
(124,374,l),
(169,394,o),
(174,414,o),
(225,415,cs),
(343,417,o),
(405,343,o),
(405,231,cs),
(405,118,o),
(338,50,o),
(229,50,cs),
(165,50,o),
(132,68,o),
(102,93,cs),
(95,98,o),
(91,102,o),
(88,106,c),
(48,64,l),
(50,62,o),
(53,60,o),
(55,58,cs)
);
}
);
width = 515;
}
);
unicode = 53;
},
{
glyphname = six;
layers = (
{
layerId = m001;
shapes = (
{
closed = 1;
nodes = (
(336,414,o),
(436,371,o),
(436,235,cs),
(436,144,o),
(383,45,o),
(281,45,cs),
(177,45,o),
(108,126,o),
(108,227,cs),
(108,334,o),
(175,414,o),
(286,414,cs)
);
},
{
closed = 1;
nodes = (
(453,695,o),
(373,756,o),
(274,756,cs),
(128,756,o),
(51,619,o),
(51,463,cs),
(51,241,ls),
(51,127,o),
(112,-5,o),
(275,-5,cs),
(417,-5,o),
(491,116,o),
(491,233,cs),
(491,353,o),
(414,465,o),
(283,465,cs),
(218,465,o),
(137,432,o),
(106,375,c),
(105,375,l),
(105,432,ls),
(105,502,o),
(108,535,o),
(121,585,cs),
(139,653,o),
(194,705,o),
(276,705,cs),
(357,705,o),
(407,662,o),
(409,589,c),
(461,600,l)
);
},
{
closed = 1;
nodes = (
(462,594,o),
(462,597,o),
(461,600,c),
(409,589,l),
(409,587,o),
(409,587,o),
(409,585,c),
(462,592,l)
);
},
{
closed = 1;
nodes = (
(409,585,l),
(409,585,o),
(462,592,o),
(462,592,c)
);
}
);
width = 518;
}
);
unicode = 54;
},
{
glyphname = seven;
layers = (
{
layerId = m001;
shapes = (
{
closed = 1;
nodes = (
(392,701,l),
(68,701,l),
(68,573,l),
(18,573,l),
(18,751,l),
(424,751,l),
(458,702,l),
(388,587,o),
(338,408,q),
(294,242,o),
(283,1,q),
(225,1,l),
(247,268,o),
(333,564,o),
(392,701,q),
(392,701,l),
(392,701,l),
(392,701,l),
(392,701,l)
);
}
);
userData = {
public.truetype.instructions = {
assembly = "PUSHW[ ]	/* 1 value pushed */
20
MDAP[1]	/* MoveDirectAbsPt */
PUSHW[ ]	/* 1 value pushed */
12
MDAP[1]	/* MoveDirectAbsPt */
PUSHW[ ]	/* 1 value pushed */
20
SRP0[ ]	/* SetRefPoint0 */
PUSHW[ ]	/* 1 value pushed */
4
MDRP[10000]	/* MoveDirectRelPt */
PUSHW[ ]	/* 1 value pushed */
4
MDAP[1]	/* MoveDirectAbsPt */
PUSHW[ ]	/* 1 value pushed */
3
MDRP[11100]	/* MoveDirectRelPt */
PUSHW[ ]	/* 1 value pushed */
12
SRP0[ ]	/* SetRefPoint0 */
PUSHW[ ]	/* 1 value pushed */
11
MDRP[11100]	/* MoveDirectRelPt */
SVTCA[0]	/* SetFPVectorToAxis */
PUSHW[ ]	/* 1 value pushed */
11
MDAP[1]	/* MoveDirectAbsPt */
PUSHW[ ]	/* 3 values pushed */
6 0 3
CALL[ ]	/* CallFunction */
PUSHW[ ]	/* 1 value pushed */
0
SRP0[ ]	/* SetRefPoint0 */
PUSHW[ ]	/* 1 value pushed */
2
MDRP[10000]	/* MoveDirectRelPt */
PUSHW[ ]	/* 1 value pushed */
6
SRP0[ ]	/* SetRefPoint0 */
PUSHW[ ]	/* 1 value pushed */
4
MDRP[11100]	/* MoveDirectRelPt */
IUP[0]	/* InterpolateUntPts */
IUP[1]	/* InterpolateUntPts */";
formatVersion = "1";
id = 03b80d23501d7f1ad8ed76f13c92be1203fca2091d8f3a05fba32ac5ef9851d75dfffbe2fcaef9c8066ed76c9ae5279041d18720d4da00b0640fcdcb24614e69;
};
};
width = 482;
}
);
unicode = 55;
},
{
glyphname = eight;
layers = (
{
guides = (
{
pos = (2910,-155);
userData = {
UFO.identifier = HW30UVSdEV;
};
}
);
layerId = m001;
shapes = (
{
closed = 1;
nodes = (
(468,112,o),
(346,-3,o),
(257,-3,q),
(162,-3,o),
(42,122,o),
(42,211,q),
(42,270,o),
(115,372,o),
(167,388,q),
(115,414,o),
(52,497,o),
(52,557,q),
(52,649,o),
(170,753,o),
(257,753,q),
(340,753,o),
(458,641,o),
(458,558,q),
(458,505,o),
(393,410,o),
(344,388,q),
(401,367,o),
(468,264,o),
(468,204,q),
(468,205,l)
);
},
{
closed = 1;
nodes = (
(415,268,o),
(321,364,o),
(257,364,q),
(188,364,o),
(95,278,o),
(95,208,q),
(95,134,o),
(191,43,o),
(257,43,q),
(329,43,o),
(415,144,o),
(415,205,q),
(415,206,l)
);
},
{
closed = 1;
nodes = (
(404,626,o),
(320,706,o),
(257,706,q),
(197,706,o),
(105,624,o),
(105,564,q),
(105,497,o),
(190,411,o),
(257,411,q),
(320,411,o),
(404,496,o),
(404,559,q),
(404,560,l)
);
}
);
width = 510;
}
);
unicode = 56;
},
{
glyphname = nine;
layers = (
{
layerId = m001;
shapes = (
{
closed = 1;
nodes = (
(212,337,o),
(112,380,o),
(112,516,cs),
(112,607,o),
(165,706,o),
(267,706,cs),
(371,706,o),
(440,625,o),
(440,524,cs),
(440,417,o),
(373,337,o),
(262,337,cs)
);
},
{
closed = 1;
nodes = (
(95,56,o),
(175,-5,o),
(274,-5,cs),
(420,-5,o),
(497,132,o),
(497,288,cs),
(497,510,ls),
(497,624,o),
(436,756,o),
(273,756,cs),
(131,756,o),
(57,635,o),
(57,518,cs),
(57,398,o),
(134,286,o),
(265,286,cs),
(330,286,o),
(411,319,o),
(442,376,c),
(443,376,l),
(443,319,ls),
(443,249,o),
(440,216,o),
(427,166,cs),
(409,98,o),
(354,46,o),
(272,46,cs),
(191,46,o),
(141,89,o),
(139,162,c),
(87,151,l)
);
},
{
closed = 1;
nodes = (
(86,157,o),
(86,154,o),
(87,151,c),
(139,162,l),
(139,164,o),
(139,164,o),
(139,166,c),
(86,159,l)
);
},
{
closed = 1;
nodes = (
(139,166,l),
(139,166,o),
(86,159,o),
(86,159,c)
);
}
);
width = 518;
}
);
unicode = 57;
},
{
glyphname = colon;
layers = (
{
layerId = m001;
shapes = (
{
closed = 1;
nodes = (
(45,443,o),
(77,475,o),
(99,475,q),
(121,475,o),
(153,443,o),
(153,421,q),
(153,399,o),
(121,368,o),
(99,368,q),
(77,368,o),
(45,399,o),
(45,421,q),
(45,422,l)
);
},
{
closed = 1;
nodes = (
(45,73,o),
(77,105,o),
(99,105,q),
(121,105,o),
(153,73,o),
(153,51,q),
(153,29,o),
(121,-2,o),
(99,-2,q),
(77,-2,o),
(45,29,o),
(45,51,q),
(45,52,l)
);
}
);
userData = {
public.truetype.instructions = {
assembly = "RTG[ ]	/* RoundToGrid */
SVTCA[1]	/* SetFPVectorToAxis */
PUSHB[ ]	/* 1 value pushed */
0
NPUSHB[ ]	/* 2 values pushed */
4 1
NPUSHW[ ]	/* 4 values pushed */
122 2 0 0
CALL[ ]	/* CallFunction */
IUP[1]	/* InterpolateUntPts */
RTG[ ]	/* RoundToGrid */
SVTCA[0]	/* SetFPVectorToAxis */
NPUSHB[ ]	/* 2 values pushed */
2 1
NPUSHB[ ]	/* 3 values pushed */
3 4 2
NPUSHW[ ]	/* 4 values pushed */
212 1 0 0
CALL[ ]	/* CallFunction */
IUP[0]	/* InterpolateUntPts */";
formatVersion = "1";
id = "w250l57-108l123+104l179+104l113-108l57-108|";
};
};
width = 198;
}
);
unicode = 58;
},
{
glyphname = semicolon;
layers = (
{
layerId = m001;
shapes = (
{
closed = 1;
nodes = (
(71,104,l),
(127,104,l),
(61,-108,l),
(5,-108,l),
(5,-108,l)
);
},
{
closed = 1;
nodes = (
(45,443,o),
(77,475,o),
(99,475,q),
(121,475,o),
(153,443,o),
(153,421,q),
(153,399,o),
(121,368,o),
(99,368,q),
(77,368,o),
(45,399,o),
(45,421,q),
(45,422,l)
);
}
);
userData = {
public.truetype.instructions = {
assembly = "RTG[ ]	/* RoundToGrid */
SVTCA[1]	/* SetFPVectorToAxis */
PUSHB[ ]	/* 1 value pushed */
0
NPUSHB[ ]	/* 2 values pushed */
4 1
NPUSHW[ ]	/* 4 values pushed */
122 2 0 0
CALL[ ]	/* CallFunction */
IUP[1]	/* InterpolateUntPts */
RTG[ ]	/* RoundToGrid */
SVTCA[0]	/* SetFPVectorToAxis */
NPUSHB[ ]	/* 2 values pushed */
2 1
NPUSHB[ ]	/* 3 values pushed */
3 4 2
NPUSHW[ ]	/* 4 values pushed */
212 1 0 0
CALL[ ]	/* CallFunction */
IUP[0]	/* InterpolateUntPts */";
formatVersion = "1";
id = "w250l57-108l123+104l179+104l113-108l57-108|";
};
};
width = 198;
}
);
unicode = 59;
},
{
glyphname = less;
layers = (
{
layerId = m001;
shapes = (
{
closed = 1;
nodes = (
(108,277,l),
(554,483,l),
(554,538,l),
(46,304,l),
(46,250,l),
(554,16,l),
(554,71,l)
);
}
);
width = 600;
}
);
unicode = 60;
},
{
glyphname = equal;
layers = (
{
layerId = m001;
shapes = (
{
closed = 1;
nodes = (
(73,396,l),
(73,352,l),
(527,352,l),
(527,396,l)
);
},
{
closed = 1;
nodes = (
(73,202,l),
(73,158,l),
(527,158,l),
(527,202,l)
);
}
);
width = 600;
}
);
unicode = 61;
},
{
glyphname = greater;
layers = (
{
layerId = m001;
shapes = (
{
closed = 1;
nodes = (
(46,16,l),
(554,250,l),
(554,304,l),
(46,538,l),
(46,483,l),
(492,277,l),
(46,71,l)
);
}
);
width = 600;
}
);
unicode = 62;
},
{
glyphname = question;
layers = (
{
layerId = m001;
shapes = (
{
closed = 1;
nodes = (
(336,335,o),
(412,433,o),
(412,543,cs),
(412,655,o),
(330,750,o),
(215,750,cs),
(100,750,o),
(20,664,o),
(17,552,c),
(71,552,l),
(72,634,o),
(131,702,o),
(215,702,cs),
(298,702,o),
(358,626,o),
(358,547,cs),
(358,434,o),
(274,372,o),
(166,384,c),
(166,151,l),
(220,151,l),
(220,335,l)
);
},
{
closed = 1;
nodes = (
(137,20,o),
(162,-5,o),
(193,-5,cs),
(223,-5,o),
(249,20,o),
(249,51,cs),
(249,81,o),
(223,107,o),
(193,107,cs),
(162,107,o),
(137,81,o),
(137,51,cs)
);
}
);
width = 444;
}
);
unicode = 63;
},
{
color = (181,255,255,255);
glyphname = at;
layers = (
{
layerId = m001;
shapes = (
{
closed = 1;
nodes = (
(613,168,o),
(694,270,o),
(694,354,qs),
(694,375,ls),
(694,429,o),
(654,528,o),
(581,606,o),
(466,652,o),
(396,652,qs),
(392,652,ls),
(302,652,o),
(160,575,o),
(78,431,o),
(78,336,qs),
(78,311,ls),
(78,235,o),
(127,115,o),
(213,40,o),
(325,1,o),
(390,1,qs),
(394,1,ls),
(487,1,o),
(530,20,q),
(530,72,l),
(482,51,o),
(394,51,qs),
(390,51,ls),
(337,51,o),
(245,84,o),
(174,148,o),
(134,250,o),
(134,314,qs),
(134,333,ls),
(134,395,o),
(174,496,o),
(243,565,o),
(337,601,o),
(392,601,qs),
(396,601,ls),
(441,601,o),
(521,578,o),
(579,535,o),
(620,477,o),
(640,409,o),
(640,373,qs),
(640,358,ls),
(640,289,o),
(595,215,o),
(561,215,qs),
(545,215,o),
(522,227,o),
(513,238,q),
(506,249,o),
(505,264,q),
(533,424,l),
(563,424,l),
(569,463,l),
(502,463,l),
(492,412,l),
(468,448,o),
(428,470,o),
(385,470,cs),
(297,470,o),
(221,398,o),
(221,309,cs),
(221,228,o),
(271,171,o),
(354,171,cs),
(400,171,o),
(440,190,o),
(465,220,c),
(474,201,o),
(492,185,qs),
(511,168,o),
(553,168,qs)
);
},
{
closed = 1;
nodes = (
(469,268,o),
(427,212,o),
(361,212,cs),
(311,212,o),
(274,250,o),
(274,301,cs),
(274,369,o),
(315,429,o),
(385,429,cs),
(436,429,o),
(469,391,o),
(469,336,cs)
);
},
{
closed = 1;
nodes = (
(505,267,l),
(505,264,l)
);
}
);
width = 787;
}
);
unicode = 64;
},
{
color = (181,255,255,255);
glyphname = A;
layers = (
{
layerId = m001;
shapes = (
{
closed = 1;
nodes = (
(254,50,l),
(174,50,l),
(238,237,l),
(529,237,l),
(593,50,l),
(513,50,l),
(513,0,l),
(749,0,l),
(749,50,l),
(661,50,l),
(443,702,l),
(508,702,l),
(508,750,l),
(262,750,l),
(262,702,l),
(327,702,l),
(108,50,l),
(20,50,l),
(20,0,l),
(254,0,l)
);
},
{
closed = 1;
nodes = (
(383,698,l),
(385,698,l),
(512,285,l),
(255,285,l)
);
}
);
width = 769;
}
);
unicode = 65;
},
{
color = (181,255,255,255);
glyphname = B;
layers = (
{
layerId = m001;
shapes = (
{
closed = 1;
nodes = (
(364,1,ls),
(516,1,o),
(615,83,o),
(615,204,cs),
(615,301,o),
(545,376,o),
(442,377,c),
(539,392,o),
(593,472,o),
(593,564,cs),
(593,660,o),
(524,750,o),
(356,750,cs),
(58,750,l),
(58,700,l),
(162,700,l),
(162,51,l),
(58,51,l),
(58,1,l)
);
},
{
closed = 1;
nodes = (
(222,351,l),
(347,351,ls),
(491,351,o),
(556,304,o),
(556,204,cs),
(556,108,o),
(491,51,o),
(365,51,cs),
(222,51,l)
);
},
{
closed = 1;
nodes = (
(222,700,l),
(354,700,ls),
(485,700,o),
(537,647,o),
(537,561,cs),
(537,474,o),
(487,401,o),
(348,401,cs),
(222,401,l)
);
}
);
width = 676;
}
);
unicode = 66;
},
{
color = (181,255,255,255);
glyphname = C;
layers = (
{
guides = (
{
pos = (2910,-155);
}
);
layerId = m001;
shapes = (
{
closed = 1;
nodes = (
(742,514,l),
(683,514,l),
(663,605,o),
(524,696,o),
(432,696,q),
(296,696,o),
(121,516,o),
(121,375,q),
(121,245,o),
(279,52,o),
(418,52,q),
(522,52,o),
(657,148,o),
(691,245,qs),
(691,245,o),
(691,245,o),
(691,245,q),
(745,225,l),
(707,112,o),
(538,-2,o),
(418,-2,q),
(269,-2,o),
(60,212,o),
(60,374,q),
(60,527,o),
(260,751,o),
(432,751,q),
(443,751,o),
(464,750,o),
(475,749,q),
(536,742,o),
(649,688,o),
(685,637,q),
(687,638,l),
(687,736,l),
(742,736,l),
(742,736,l)
);
}
);
width = 812;
}
);
unicode = 67;
},
{
color = (181,255,255,255);
glyphname = D;
layers = (
{
layerId = m001;
shapes = (
{
closed = 1;
nodes = (
(52,50,l),
(140,50,l),
(140,700,l),
(52,700,l),
(52,750,l),
(284,750,l),
(286,749,o),
(292,749,o),
(295,749,q),
(374,749,o),
(518,730,o),
(588,674,q),
(596,667,o),
(614,651,o),
(622,643,q),
(674,591,o),
(730,455,o),
(730,383,q),
(730,300,o),
(674,160,o),
(624,109,q),
(574,58,o),
(435,0,o),
(352,0,q),
(52,0,l),
(52,0,l)
);
},
{
closed = 1;
nodes = (
(201,50,l),
(377,50,l),
(491,50,o),
(667,236,o),
(667,383,q),
(667,520,o),
(498,695,o),
(366,699,q),
(201,700,l),
(201,700,l)
);
}
);
userData = {
public.truetype.instructions = {
assembly = "RTG[ ]	/* RoundToGrid */
SVTCA[1]	/* SetFPVectorToAxis */
NPUSHB[ ]	/* 3 values pushed */
27 35 2
NPUSHB[ ]	/* 2 values pushed */
3 1
NPUSHW[ ]	/* 4 values pushed */
54 26 2 0
CALL[ ]	/* CallFunction */
PUSHB[ ]	/* 1 value pushed */
0
PUSHB[ ]	/* 1 value pushed */
0
NPUSHW[ ]	/* 4 values pushed */
54 18 31 0
CALL[ ]	/* CallFunction */
IUP[1]	/* InterpolateUntPts */
RTG[ ]	/* RoundToGrid */
SVTCA[0]	/* SetFPVectorToAxis */
NPUSHB[ ]	/* 2 values pushed */
6 1
NPUSHB[ ]	/* 5 values pushed */
4 26 34 35 4
NPUSHW[ ]	/* 4 values pushed */
46 5 3 0
CALL[ ]	/* CallFunction */
NPUSHB[ ]	/* 4 values pushed */
2 27 28 3
NPUSHB[ ]	/* 3 values pushed */
24 25 2
NPUSHW[ ]	/* 4 values pushed */
46 1 0 0
CALL[ ]	/* CallFunction */
PUSHW[ ]	/* 1 value pushed */
5
PUSHB[ ]	/* 1 value pushed */
1
MIAP[1]	/* MoveIndirectAbsPt */
NPUSHB[ ]	/* 7 values pushed */
3 4 6 26 34 35 6
PUSHB[ ]	/* 1 value pushed */
1
LOOPCALL[ ]	/* LoopAndCallFunction */
PUSHW[ ]	/* 1 value pushed */
0
PUSHB[ ]	/* 1 value pushed */
4
MIAP[1]	/* MoveIndirectAbsPt */
NPUSHB[ ]	/* 7 values pushed */
1 2 24 25 27 28 6
PUSHB[ ]	/* 1 value pushed */
1
LOOPCALL[ ]	/* LoopAndCallFunction */
IUP[0]	/* InterpolateUntPts */";
formatVersion = "1";
id = 16b4c973b77876a75fba88773167584379442b14d036dffe74a42efd602ea2c9833e9ab940904005fec6957e2442e671ef493e66ede94cd6f63df2ecab53bb06;
};
};
width = 790;
}
);
unicode = 68;
},
{
color = (181,255,255,255);
glyphname = E;
layers = (
{
layerId = m001;
shapes = (
{
closed = 1;
nodes = (
(188,700,l),
(504,700,l),
(504,585,l),
(554,585,l),
(554,750,l),
(52,750,l),
(52,700,l),
(127,700,l),
(127,50,l),
(52,50,l),
(52,0,l),
(344,0,l),
(344,1,l),
(554,1,l),
(554,166,l),
(504,166,l),
(504,50,l),
(188,50,l),
(188,375,l),
(453,375,l),
(453,427,l),
(188,427,l)
);
}
);
width = 623;
}
);
unicode = 69;
},
{
color = (181,255,255,255);
glyphname = F;
layers = (
{
layerId = m001;
shapes = (
{
closed = 1;
nodes = (
(188,700,l),
(329,700,l),
(329,698,l),
(504,698,l),
(504,585,l),
(554,585,l),
(554,750,l),
(52,750,l),
(52,700,l),
(127,700,l),
(127,50,l),
(52,50,l),
(52,0,l),
(264,0,l),
(264,50,l),
(188,50,l),
(188,375,l),
(453,375,l),
(453,427,l),
(188,427,l)
);
}
);
width = 609;
}
);
unicode = 70;
},
{
color = (181,255,255,255);
glyphname = G;
layers = (
{
guides = (
{
pos = (2910,-155);
}
);
layerId = m001;
shapes = (
{
closed = 1;
nodes = (
(713,119,l),
(711,119,l),
(682,71,o),
(600,14,o),
(558,0,q),
(531,-8,o),
(478,-16,o),
(455,-16,q),
(267,-16,o),
(60,215,o),
(60,367,q),
(60,398,o),
(73,472,o),
(88,511,q),
(123,601,o),
(298,750,o),
(461,750,q),
(486,750,o),
(552,738,o),
(587,723,q),
(619,710,o),
(679,670,o),
(703,640,q),
(705,641,l),
(705,735,l),
(754,735,l),
(754,511,l),
(705,511,l),
(692,592,o),
(570,685,o),
(500,697,q),
(486,699,o),
(461,701,o),
(449,701,q),
(303,701,o),
(126,503,o),
(126,367,q),
(126,214,o),
(316,32,o),
(455,32,q),
(565,32,o),
(715,175,o),
(720,274,q),
(490,275,l),
(490,324,l),
(849,324,l),
(849,275,l),
(768,275,l),
(768,0,l),
(713,0,l),
(713,0,l)
);
}
);
width = 919;
}
);
unicode = 71;
},
{
color = (181,255,255,255);
glyphname = H;
layers = (
{
layerId = m001;
shapes = (
{
closed = 1;
nodes = (
(187,700,l),
(262,700,l),
(262,750,l),
(52,750,l),
(52,700,l),
(127,700,l),
(127,50,l),
(52,50,l),
(52,0,l),
(262,0,l),
(262,50,l),
(187,50,l),
(187,375,l),
(562,375,l),
(562,50,l),
(487,50,l),
(487,0,l),
(697,0,l),
(697,50,l),
(622,50,l),
(622,700,l),
(697,700,l),
(697,750,l),
(487,750,l),
(487,700,l),
(562,700,l),
(562,427,l),
(187,427,l)
);
}
);
width = 749;
}
);
unicode = 72;
},
{
color = (181,255,255,255);
glyphname = I;
layers = (
{
layerId = m001;
shapes = (
{
closed = 1;
nodes = (
(53,0,l),
(263,0,l),
(263,50,l),
(188,50,l),
(188,700,l),
(263,700,l),
(263,750,l),
(53,750,l),
(53,700,l),
(128,700,l),
(128,50,l),
(53,50,l)
);
}
);
width = 316;
}
);
unicode = 73;
},
{
color = (181,255,255,255);
glyphname = J;
layers = (
{
layerId = m001;
shapes = (
{
closed = 1;
nodes = (
(167,-22,o),
(212,-3,o),
(246,31,cs),
(286,71,o),
(303,138,o),
(303,215,cs),
(303,699,l),
(385,699,l),
(385,749,l),
(143,749,l),
(143,699,l),
(246,699,l),
(246,216,ls),
(246,149,o),
(233,99,o),
(204,70,cs),
(179,45,o),
(146,32,o),
(108,32,cs),
(36,32,o),
(-6,80,o),
(-10,114,c),
(-63,94,l),
(-42,26,o),
(28,-22,o),
(108,-22,cs)
);
}
);
width = 392;
}
);
unicode = 74;
},
{
color = (181,255,255,255);
glyphname = K;
layers = (
{
layerId = m001;
shapes = (
{
closed = 1;
nodes = (
(274,0,l),
(274,50,l),
(193,50,l),
(193,251,l),
(306,373,l),
(526,50,l),
(450,50,l),
(450,0,l),
(685,0,l),
(685,50,l),
(598,50,l),
(348,418,l),
(549,635,l),
(609,700,l),
(678,700,l),
(678,750,l),
(450,750,l),
(450,700,l),
(540,700,l),
(193,325,l),
(193,700,l),
(274,700,l),
(274,750,l),
(48,750,l),
(48,700,l),
(133,700,l),
(133,50,l),
(48,50,l),
(48,0,l)
);
}
);
userData = {
public.truetype.instructions = {
assembly = "RTG[ ]	/* RoundToGrid */
SVTCA[1]	/* SetFPVectorToAxis */
NPUSHB[ ]	/* 4 values pushed */
10 24 25 3
NPUSHB[ ]	/* 2 values pushed */
4 1
NPUSHW[ ]	/* 4 values pushed */
54 9 3 0
CALL[ ]	/* CallFunction */
IUP[1]	/* InterpolateUntPts */
RTG[ ]	/* RoundToGrid */
SVTCA[0]	/* SetFPVectorToAxis */
NPUSHB[ ]	/* 4 values pushed */
7 13 14 3
NPUSHB[ ]	/* 8 values pushed */
5 8 9 11 12 15 16 7
NPUSHW[ ]	/* 4 values pushed */
46 6 4 0
CALL[ ]	/* CallFunction */
NPUSHB[ ]	/* 8 values pushed */
3 18 19 22 23 25 26 7
NPUSHB[ ]	/* 5 values pushed */
1 20 21 27 4
NPUSHW[ ]	/* 4 values pushed */
46 2 0 0
CALL[ ]	/* CallFunction */
PUSHW[ ]	/* 1 value pushed */
6
PUSHB[ ]	/* 1 value pushed */
1
MIAP[1]	/* MoveIndirectAbsPt */
NPUSHB[ ]	/* 12 values pushed */
4 5 7 8 9 11 12 13 14 15 16 11
PUSHB[ ]	/* 1 value pushed */
1
LOOPCALL[ ]	/* LoopAndCallFunction */
PUSHW[ ]	/* 1 value pushed */
0
PUSHB[ ]	/* 1 value pushed */
4
MIAP[1]	/* MoveIndirectAbsPt */
NPUSHB[ ]	/* 13 values pushed */
1 2 3 18 19 20 21 22 23 25 26 27 12
PUSHB[ ]	/* 1 value pushed */
1
LOOPCALL[ ]	/* LoopAndCallFunction */
IUP[0]	/* InterpolateUntPts */";
formatVersion = "1";
id = b81e7ff99e26e62b6aba5afe8f56f4f61fa0346376fab5b205f849b7d3129033de474b27ec640645739e00912a277f74b8de80900bd959ab7eca299647639684;
};
};
width = 694;
}
);
unicode = 75;
},
{
color = (181,255,255,255);
glyphname = L;
layers = (
{
layerId = m001;
shapes = (
{
closed = 1;
nodes = (
(52,0,l),
(522,0,l),
(522,152,l),
(472,152,l),
(472,51,l),
(187,51,l),
(187,700,l),
(262,700,l),
(262,750,l),
(52,750,l),
(52,700,l),
(127,700,l),
(127,50,l),
(52,50,l)
);
}
);
width = 578;
}
);
unicode = 76;
},
{
color = (181,255,255,255);
glyphname = M;
layers = (
{
layerId = m001;
shapes = (
{
closed = 1;
nodes = (
(482,119,l),
(480,119,l),
(215,750,l),
(47,750,l),
(47,701,l),
(135,701,l),
(135,50,l),
(47,50,l),
(47,0,l),
(281,0,l),
(281,50,l),
(195,50,l),
(195,652,l),
(197,652,l),
(463,31,l),
(499,31,l),
(764,652,l),
(767,652,l),
(767,50,l),
(681,50,l),
(681,0,l),
(915,0,l),
(915,50,l),
(827,50,l),
(827,701,l),
(915,701,l),
(915,750,l),
(747,750,l)
);
}
);
userData = {
public.truetype.instructions = {
assembly = "RTG[ ]	/* RoundToGrid */
SVTCA[1]	/* SetFPVectorToAxis */
NPUSHB[ ]	/* 2 values pushed */
16 1
NPUSHB[ ]	/* 2 values pushed */
22 1
NPUSHW[ ]	/* 4 values pushed */
54 15 21 0
CALL[ ]	/* CallFunction */
NPUSHB[ ]	/* 2 values pushed */
4 1
NPUSHB[ ]	/* 2 values pushed */
10 1
NPUSHW[ ]	/* 4 values pushed */
54 3 9 0
CALL[ ]	/* CallFunction */
IUP[1]	/* InterpolateUntPts */
RTG[ ]	/* RoundToGrid */
SVTCA[0]	/* SetFPVectorToAxis */
NPUSHB[ ]	/* 5 values pushed */
1 24 25 28 4
NPUSHB[ ]	/* 4 values pushed */
3 22 23 3
NPUSHW[ ]	/* 4 values pushed */
46 0 2 0
CALL[ ]	/* CallFunction */
NPUSHB[ ]	/* 8 values pushed */
5 8 9 16 17 20 21 7
NPUSHB[ ]	/* 4 values pushed */
7 18 19 3
NPUSHW[ ]	/* 4 values pushed */
46 4 6 0
CALL[ ]	/* CallFunction */
PUSHW[ ]	/* 1 value pushed */
0
PUSHB[ ]	/* 1 value pushed */
1
MIAP[1]	/* MoveIndirectAbsPt */
NPUSHB[ ]	/* 9 values pushed */
1 2 3 22 23 24 25 28 8
PUSHB[ ]	/* 1 value pushed */
1
LOOPCALL[ ]	/* LoopAndCallFunction */
PUSHW[ ]	/* 1 value pushed */
6
PUSHB[ ]	/* 1 value pushed */
4
MIAP[1]	/* MoveIndirectAbsPt */
NPUSHB[ ]	/* 14 values pushed */
4 5 7 8 9 12 13 16 17 18 19 20 21 13
PUSHB[ ]	/* 1 value pushed */
1
LOOPCALL[ ]	/* LoopAndCallFunction */
IUP[0]	/* InterpolateUntPts */";
formatVersion = "1";
id = 71b7f8fc88691a28da1b6b085f99b3ea0b4a8b5be4b7d71977b73ef57b4bbfc5fdf59db96fe59ecf7d6c7a224cc4f407e0fdd373dfdbf08e89e65c71e5b1db20;
};
};
width = 968;
}
);
unicode = 77;
},
{
color = (181,255,255,255);
glyphname = N;
layers = (
{
layerId = m001;
shapes = (
{
closed = 1;
nodes = (
(200,50,l),
(288,50,l),
(288,0,l),
(52,0,l),
(52,50,l),
(140,50,l),
(140,700,l),
(52,700,l),
(52,750,l),
(229,750,l),
(610,99,l),
(612,99,l),
(612,700,l),
(524,700,l),
(524,750,l),
(760,750,l),
(760,700,l),
(672,700,l),
(672,0,l),
(610,0,l),
(202,686,l),
(200,686,l),
(200,686,l)
);
}
);
userData = {
public.truetype.instructions = {
assembly = "RTG[ ]	/* RoundToGrid */
SVTCA[1]	/* SetFPVectorToAxis */
NPUSHB[ ]	/* 2 values pushed */
19 1
NPUSHB[ ]	/* 2 values pushed */
13 1
NPUSHW[ ]	/* 4 values pushed */
54 18 12 0
CALL[ ]	/* CallFunction */
NPUSHB[ ]	/* 3 values pushed */
1 22 2
NPUSHB[ ]	/* 2 values pushed */
7 1
NPUSHW[ ]	/* 4 values pushed */
54 0 6 0
CALL[ ]	/* CallFunction */
IUP[1]	/* InterpolateUntPts */
RTG[ ]	/* RoundToGrid */
SVTCA[0]	/* SetFPVectorToAxis */
NPUSHB[ ]	/* 4 values pushed */
10 15 16 3
NPUSHB[ ]	/* 3 values pushed */
21 22 2
NPUSHW[ ]	/* 4 values pushed */
61 9 0 0
CALL[ ]	/* CallFunction */
NPUSHB[ ]	/* 2 values pushed */
12 1
NPUSHB[ ]	/* 4 values pushed */
4 19 20 3
NPUSHW[ ]	/* 4 values pushed */
95 11 3 0
CALL[ ]	/* CallFunction */
NPUSHB[ ]	/* 4 values pushed */
10 15 16 3
NPUSHB[ ]	/* 6 values pushed */
8 13 14 17 18 5
NPUSHW[ ]	/* 4 values pushed */
46 9 7 0
CALL[ ]	/* CallFunction */
NPUSHB[ ]	/* 4 values pushed */
2 5 6 3
NPUSHB[ ]	/* 4 values pushed */
4 19 20 3
NPUSHW[ ]	/* 4 values pushed */
46 1 3 0
CALL[ ]	/* CallFunction */
PUSHW[ ]	/* 1 value pushed */
9
PUSHB[ ]	/* 1 value pushed */
1
MIAP[1]	/* MoveIndirectAbsPt */
NPUSHB[ ]	/* 10 values pushed */
7 8 10 13 14 15 16 17 18 9
PUSHB[ ]	/* 1 value pushed */
1
LOOPCALL[ ]	/* LoopAndCallFunction */
PUSHW[ ]	/* 1 value pushed */
3
PUSHB[ ]	/* 1 value pushed */
4
MIAP[1]	/* MoveIndirectAbsPt */
NPUSHB[ ]	/* 8 values pushed */
1 2 4 5 6 19 20 7
PUSHB[ ]	/* 1 value pushed */
1
LOOPCALL[ ]	/* LoopAndCallFunction */
IUP[0]	/* InterpolateUntPts */";
formatVersion = "1";
id = 35c21a400f176322f7a2faf212f550bd803c107d59b60a26ed529cd8a384d3dc3ad275115a4559f40ac20eb81ab40f0722391c70f1aa14a01213b66cdda1dbbc;
};
};
width = 799;
}
);
unicode = 78;
},
{
color = (181,255,255,255);
glyphname = O;
layers = (
{
guides = (
{
pos = (2910,-155);
userData = {
UFO.identifier = 1XSFbINiZp;
};
}
);
layerId = m001;
shapes = (
{
closed = 1;
nodes = (
(18,445,o),
(48,536,o),
(116,617,c),
(183,698,o),
(270,743,o),
(375,752,c),
(481,761,o),
(574,732,o),
(655,664,c),
(737,597,o),
(781,511,o),
(790,408,c),
(799,304,o),
(770,212,o),
(703,132,c),
(634,51,o),
(548,6,o),
(442,-3,c),
(336,-12,o),
(243,17,o),
(162,84,c),
(81,152,o),
(36,237,o),
(27,341,c),
(27,342,l)
);
},
{
closed = 1;
nodes = (
(98,256,o),
(135,181,o),
(202,124,c),
(269,66,o),
(347,41,o),
(437,49,c),
(527,57,o),
(601,96,o),
(656,164,c),
(712,231,o),
(736,311,o),
(729,402,c),
(721,493,o),
(683,568,o),
(616,625,c),
(549,682,o),
(470,708,o),
(379,700,c),
(290,693,o),
(216,654,o),
(161,586,c),
(106,516,o),
(81,437,o),
(89,346,c),
(89,347,l)
);
}
);
width = 812;
}
);
unicode = 79;
},
{
color = (181,255,255,255);
glyphname = P;
layers = (
{
layerId = m001;
shapes = (
{
closed = 1;
nodes = (
(307,0,l),
(307,50,l),
(198,50,l),
(198,327,l),
(225,326,o),
(283,325,o),
(327,325,cs),
(490,325,o),
(594,404,o),
(594,546,cs),
(594,682,o),
(481,750,o),
(325,750,cs),
(48,750,l),
(48,700,l),
(138,700,l),
(138,50,l),
(48,50,l),
(48,0,l)
);
},
{
closed = 1;
nodes = (
(283,374,o),
(227,375,o),
(198,376,c),
(198,700,l),
(327,700,ls),
(456,700,o),
(539,649,o),
(539,545,cs),
(539,429,o),
(468,374,o),
(328,374,cs)
);
},
{
closed = 0;
nodes = (
(198,538,l),
(198,701,l)
);
}
);
width = 634;
}
);
unicode = 80;
},
{
color = (181,255,255,255);
glyphname = Q;
layers = (
{
guides = (
{
pos = (2910,-155);
userData = {
UFO.identifier = GhiJ9o8xJN;
};
},
{
pos = (2910,-155);
userData = {
UFO.identifier = ovAgEZH3ZI;
};
},
{
pos = (2910,-155);
userData = {
UFO.identifier = 2xZdE01y2I;
};
}
);
layerId = m001;
shapes = (
{
closed = 1;
nodes = (
(128,343,l),
(116,478,o),
(282,683,o),
(416,694,qs),
(551,706,o),
(751,534,o),
(763,398,qs),
(774,263,o),
(691,162,qs),
(671,137,o),
(647,117,q),
(643,119,o),
(640,121,o),
(636,123,cs),
(472,210,o),
(333,211,o),
(272,135,cs),
(265,126,o),
(264,126,o),
(259,106,c),
(249,113,o),
(240,122,q),
(140,207,o),
(128,344,q)
);
},
{
closed = 1;
nodes = (
(343,41,o),
(294,79,o),
(315,103,cs),
(370,168,o),
(523,133,o),
(591,81,c),
(539,57,o),
(473,48,q),
(465,47,o),
(457,47,q)
);
},
{
closed = 1;
nodes = (
(887,50,o),
(885,49,o),
(884,49,cs),
(861,48,o),
(839,49,o),
(814,50,cs),
(775,51,o),
(721,71,o),
(699,91,c),
(719,109,o),
(737,130,qs),
(838,250,o),
(824,404,qs),
(811,558,o),
(569,760,o),
(255,732,o),
(53,492,o),
(66,339,q),
(66,338,l),
(80,184,o),
(320,-18,o),
(478,-4,qs),
(570,4,o),
(643,49,q),
(707,15,o),
(747,6,o),
(802,0,cs),
(832,-3,o),
(859,-5,o),
(885,0,cs),
(886,0,o),
(887,0,o),
(888,1,c),
(888,50,l)
);
},
{
closed = 1;
nodes = (
(888,1,l),
(888,50,l)
);
}
);
userData = {
com.typemytype.robofont.Image.Brightness = 0.21508;
com.typemytype.robofont.Image.Contrast = 2.125;
com.typemytype.robofont.Image.Saturation = 1;
com.typemytype.robofont.Image.Sharpness = 0;
};
width = 844;
}
);
unicode = 81;
},
{
color = (181,255,255,255);
glyphname = R;
layers = (
{
layerId = m001;
shapes = (
{
closed = 1;
nodes = (
(156,750,l),
(50,750,l),
(50,700,l),
(127,700,l),
(127,50,l),
(50,50,l),
(50,0,l),
(264,0,l),
(264,50,l),
(187,50,l),
(187,369,l),
(289,368,ls),
(387,368,o),
(520,309,o),
(520,205,qs),
(520,0,l),
(655,0,l),
(655,50,l),
(578,50,l),
(578,201,ls),
(578,270,o),
(522,367,o),
(446,388,q),
(446,389,l),
(532,412,o),
(582,465,o),
(582,564,cs),
(582,700,o),
(469,750,o),
(313,750,cs),
(190,750,l)
);
},
{
closed = 1;
nodes = (
(272,423,o),
(216,424,o),
(187,425,c),
(187,700,l),
(187,701,l),
(315,701,ls),
(444,701,o),
(527,667,o),
(527,563,cs),
(527,447,o),
(456,423,o),
(316,423,cs)
);
}
);
width = 656;
}
);
unicode = 82;
},
{
color = (181,255,255,255);
glyphname = S;
layers = (
{
background = {
shapes = (
{
closed = 1;
nodes = (
(112,-1,l),
(112,130,l),
(112,128,o),
(113,127,o),
(113,125,cs),
(129,48,o),
(249,-16,o),
(353,-17,cs),
(457,-18,o),
(594,40,o),
(594,191,cs),
(594,270,o),
(545,347,o),
(323,408,c),
(178,462,o),
(126,475,o),
(119,563,c),
(119,687,o),
(210,716,o),
(299,713,cs),
(387,710,o),
(478,657,o),
(502,555,c),
(502,553,l),
(503,553,l),
(503,551,l),
(503,551,o),
(503,552,o),
(504,553,c),
(550,553,l),
(550,748,l),
(502,748,l),
(502,663,l),
(501,664,l),
(463,717,o),
(400,760,o),
(296,761,cs),
(192,762,o),
(62,719,o),
(62,568,cs),
(62,464,o),
(114,405,o),
(295,362,c),
(487,300,o),
(537,254,o),
(537,196,c),
(537,72,o),
(439,32,o),
(350,35,cs),
(262,38,o),
(150,72,o),
(112,234,c),
(112,244,l),
(64,244,l),
(64,-1,l)
);
}
);
};
layerId = m001;
shapes = (
{
closed = 1;
nodes = (
(112,-1,l),
(112,130,l),
(112,128,o),
(113,127,o),
(113,125,cs),
(129,48,o),
(249,-16,o),
(353,-17,cs),
(457,-18,o),
(594,40,o),
(594,191,cs),
(594,270,o),
(545,347,o),
(323,408,c),
(178,462,o),
(126,475,o),
(119,563,c),
(119,687,o),
(210,716,o),
(299,713,cs),
(387,710,o),
(478,657,o),
(502,555,c),
(502,553,l),
(503,553,l),
(503,551,l),
(503,551,o),
(503,552,o),
(504,553,c),
(550,553,l),
(550,748,l),
(502,748,l),
(502,663,l),
(501,664,l),
(463,717,o),
(400,760,o),
(296,761,cs),
(192,762,o),
(62,719,o),
(62,568,cs),
(62,464,o),
(114,405,o),
(295,362,c),
(487,300,o),
(537,254,o),
(537,196,c),
(537,72,o),
(439,32,o),
(350,35,cs),
(262,38,o),
(150,72,o),
(112,234,c),
(112,244,l),
(64,244,l),
(64,-1,l)
);
}
);
userData = {
public.truetype.instructions = {
assembly = "RTG[ ]	/* RoundToGrid */
SVTCA[1]	/* SetFPVectorToAxis */
PUSHB[ ]	/* 1 value pushed */
0
PUSHB[ ]	/* 1 value pushed */
0
NPUSHW[ ]	/* 4 values pushed */
54 16 39 0
CALL[ ]	/* CallFunction */
NPUSHB[ ]	/* 3 values pushed */
27 30 2
NPUSHB[ ]	/* 2 values pushed */
29 1
NPUSHW[ ]	/* 4 values pushed */
50 26 28 0
CALL[ ]	/* CallFunction */
NPUSHB[ ]	/* 3 values pushed */
56 57 2
NPUSHB[ ]	/* 2 values pushed */
55 1
NPUSHW[ ]	/* 4 values pushed */
50 0 54 0
CALL[ ]	/* CallFunction */
IUP[1]	/* InterpolateUntPts */
RTG[ ]	/* RoundToGrid */
SVTCA[0]	/* SetFPVectorToAxis */
PUSHB[ ]	/* 1 value pushed */
0
NPUSHB[ ]	/* 2 values pushed */
28 1
NPUSHW[ ]	/* 4 values pushed */
34 33 27 0
CALL[ ]	/* CallFunction */
NPUSHB[ ]	/* 2 values pushed */
56 1
NPUSHB[ ]	/* 3 values pushed */
1 57 2
NPUSHW[ ]	/* 4 values pushed */
187 55 0 0
CALL[ ]	/* CallFunction */
PUSHB[ ]	/* 1 value pushed */
0
PUSHB[ ]	/* 1 value pushed */
0
NPUSHW[ ]	/* 4 values pushed */
46 51 4 0
CALL[ ]	/* CallFunction */
PUSHB[ ]	/* 1 value pushed */
0
PUSHB[ ]	/* 1 value pushed */
0
NPUSHW[ ]	/* 4 values pushed */
46 33 22 0
CALL[ ]	/* CallFunction */
PUSHW[ ]	/* 1 value pushed */
55
PUSHB[ ]	/* 1 value pushed */
1
MIAP[1]	/* MoveIndirectAbsPt */
NPUSHB[ ]	/* 4 values pushed */
4 51 56 3
PUSHB[ ]	/* 1 value pushed */
1
LOOPCALL[ ]	/* LoopAndCallFunction */
PUSHW[ ]	/* 1 value pushed */
27
PUSHB[ ]	/* 1 value pushed */
4
MIAP[1]	/* MoveIndirectAbsPt */
NPUSHB[ ]	/* 4 values pushed */
22 28 33 3
PUSHB[ ]	/* 1 value pushed */
1
LOOPCALL[ ]	/* LoopAndCallFunction */
IUP[0]	/* InterpolateUntPts */";
formatVersion = "1";
id = dfc7bdd5db685843fc666d4a7a665626861017e98a1d2a2ab3daa3f1a0cce146789289e22eb94351a44fa430dc5f35419064a5cb20eeddeaab14b5f2cff127fd;
};
};
width = 658;
}
);
unicode = 83;
},
{
color = (181,255,255,255);
glyphname = T;
layers = (
{
layerId = m001;
shapes = (
{
closed = 1;
nodes = (
(524,553,l),
(574,553,l),
(574,750,l),
(50,750,l),
(50,553,l),
(100,553,l),
(100,700,l),
(282,700,l),
(282,50,l),
(205,50,l),
(205,0,l),
(419,0,l),
(419,50,l),
(342,50,l),
(342,700,l),
(524,700,l)
);
}
);
width = 624;
}
);
unicode = 84;
},
{
color = (181,255,255,255);
glyphname = U;
layers = (
{
layerId = m001;
shapes = (
{
closed = 1;
nodes = (
(620,0,o),
(628,198,o),
(627,214,c),
(627,699,l),
(706,699,l),
(706,750,l),
(484,750,l),
(484,700,l),
(567,700,l),
(567,212,l),
(567,108,o),
(470,47,o),
(371,47,c),
(371,0,l)
);
},
{
closed = 1;
nodes = (
(229,47,o),
(353,47,o),
(371,47,c)
);
},
{
closed = 1;
nodes = (
(371,47,l),
(272,47,o),
(175,108,o),
(175,212,c),
(175,700,l),
(258,700,l),
(258,750,l),
(36,750,l),
(36,699,l),
(115,699,l),
(115,214,l),
(114,198,o),
(122,0,o),
(371,0,c)
);
},
{
closed = 1;
nodes = (
(389,47,o),
(513,47,o),
(371,47,c)
);
}
);
width = 742;
}
);
unicode = 85;
},
{
color = (181,255,255,255);
glyphname = V;
layers = (
{
layerId = m001;
shapes = (
{
closed = 1;
nodes = (
(20,750,l),
(232,750,l),
(232,702,l),
(155,702,l),
(345,105,l),
(347,105,l),
(541,702,l),
(464,702,l),
(464,750,l),
(675,750,l),
(675,702,l),
(598,702,l),
(369,0,l),
(322,0,l),
(97,702,l),
(20,702,l),
(20,702,l)
);
}
);
userData = {
public.truetype.instructions = {
assembly = "RTG[ ]	/* RoundToGrid */
SVTCA[1]	/* SetFPVectorToAxis */
NPUSHB[ ]	/* 2 values pushed */
11 1
NPUSHB[ ]	/* 3 values pushed */
1 16 2
NPUSHW[ ]	/* 4 values pushed */
655 10 0 0
CALL[ ]	/* CallFunction */
IUP[1]	/* InterpolateUntPts */
RTG[ ]	/* RoundToGrid */
SVTCA[0]	/* SetFPVectorToAxis */
NPUSHB[ ]	/* 4 values pushed */
2 9 10 3
NPUSHB[ ]	/* 9 values pushed */
3 4 7 8 11 12 15 16 8
NPUSHW[ ]	/* 4 values pushed */
46 1 0 0
CALL[ ]	/* CallFunction */
PUSHW[ ]	/* 1 value pushed */
1
PUSHB[ ]	/* 1 value pushed */
1
MIAP[1]	/* MoveIndirectAbsPt */
NPUSHB[ ]	/* 13 values pushed */
0 2 3 4 7 8 9 10 11 12 15 16 12
PUSHB[ ]	/* 1 value pushed */
1
LOOPCALL[ ]	/* LoopAndCallFunction */
PUSHW[ ]	/* 1 value pushed */
13
PUSHB[ ]	/* 1 value pushed */
4
MIAP[1]	/* MoveIndirectAbsPt */
NPUSHB[ ]	/* 2 values pushed */
14 1
PUSHB[ ]	/* 1 value pushed */
1
LOOPCALL[ ]	/* LoopAndCallFunction */
IUP[0]	/* InterpolateUntPts */";
formatVersion = "1";
id = da38f116c1591ef5eac0574b243835f15cb6de9f095c974c784addc09b17cbb87ee6fafe338b5ad4f92bd30ef0b1aba55b1d299da53aaff19ec647e6c70f14ce;
};
};
width = 695;
}
);
unicode = 86;
},
{
color = (181,255,255,255);
glyphname = W;
layers = (
{
layerId = m001;
shapes = (
{
closed = 1;
nodes = (
(97,701,l),
(323,0,l),
(377,0,l),
(521,617,l),
(523,617,l),
(672,0,l),
(725,0,l),
(952,701,l),
(1029,701,l),
(1029,751,l),
(820,751,l),
(820,701,l),
(900,701,l),
(703,106,l),
(703,106,l),
(556,701,l),
(636,701,l),
(636,751,l),
(413,751,l),
(413,701,l),
(493,701,l),
(346,106,l),
(346,106,l),
(151,701,l),
(231,701,l),
(231,751,l),
(20,751,l),
(20,701,l)
);
}
);
userData = {
public.truetype.instructions = {
assembly = "RTG[ ]	/* RoundToGrid */
SVTCA[1]	/* SetFPVectorToAxis */
NPUSHB[ ]	/* 2 values pushed */
19 1
NPUSHB[ ]	/* 3 values pushed */
1 28 2
NPUSHW[ ]	/* 4 values pushed */
972 18 0 0
CALL[ ]	/* CallFunction */
IUP[1]	/* InterpolateUntPts */
RTG[ ]	/* RoundToGrid */
SVTCA[0]	/* SetFPVectorToAxis */
NPUSHB[ ]	/* 6 values pushed */
2 9 10 17 18 5
NPUSHB[ ]	/* 13 values pushed */
3 4 7 8 11 12 15 16 19 20 27 28 12
NPUSHW[ ]	/* 4 values pushed */
46 1 0 0
CALL[ ]	/* CallFunction */
NPUSHB[ ]	/* 4 values pushed */
6 13 14 3
NPUSHB[ ]	/* 4 values pushed */
22 25 26 3
NPUSHW[ ]	/* 4 values pushed */
83 5 21 0
CALL[ ]	/* CallFunction */
PUSHW[ ]	/* 1 value pushed */
1
PUSHB[ ]	/* 1 value pushed */
1
MIAP[1]	/* MoveIndirectAbsPt */
NPUSHB[ ]	/* 19 values pushed */
0 2 3 4 7 8 9 10 11 12 15 16 17 18 19 20 27 28 18
PUSHB[ ]	/* 1 value pushed */
1
LOOPCALL[ ]	/* LoopAndCallFunction */
PUSHW[ ]	/* 1 value pushed */
21
PUSHB[ ]	/* 1 value pushed */
4
MIAP[1]	/* MoveIndirectAbsPt */
NPUSHB[ ]	/* 4 values pushed */
22 25 26 3
PUSHB[ ]	/* 1 value pushed */
1
LOOPCALL[ ]	/* LoopAndCallFunction */
IUP[0]	/* InterpolateUntPts */";
formatVersion = "1";
id = a0ce55e797c549e1e7fcf187c626b68b1ab7adf24172dbc3946f4b4f59499417878335eaa2b56f6e2620b84bdcf8a50aa41dd705e2ebf877c1d779bd5bc775b4;
};
};
width = 1049;
}
);
unicode = 87;
},
{
color = (181,255,255,255);
glyphname = X;
layers = (
{
layerId = m001;
shapes = (
{
closed = 1;
nodes = (
(47,0,l),
(47,50,l),
(136,50,l),
(350,373,l),
(350,375,l),
(136,700,l),
(47,700,l),
(47,750,l),
(293,750,l),
(293,700,l),
(204,700,l),
(384,425,l),
(386,425,l),
(569,700,l),
(480,700,l),
(480,750,l),
(726,750,l),
(726,700,l),
(637,700,l),
(421,375,l),
(421,373,l),
(636,50,l),
(725,50,l),
(725,0,l),
(479,0,l),
(479,50,l),
(568,50,l),
(386,322,l),
(384,322,l),
(204,50,l),
(293,50,l),
(293,0,l),
(293,0,l)
);
}
);
userData = {
public.truetype.instructions = {
assembly = "RTG[ ]	/* RoundToGrid */
SVTCA[1]	/* SetFPVectorToAxis */
NPUSHB[ ]	/* 4 values pushed */
18 23 24 3
NPUSHB[ ]	/* 4 values pushed */
2 7 8 3
NPUSHW[ ]	/* 4 values pushed */
655 17 1 0
CALL[ ]	/* CallFunction */
IUP[1]	/* InterpolateUntPts */
RTG[ ]	/* RoundToGrid */
SVTCA[0]	/* SetFPVectorToAxis */
NPUSHB[ ]	/* 4 values pushed */
9 16 17 3
NPUSHB[ ]	/* 8 values pushed */
7 10 11 14 15 18 19 7
NPUSHW[ ]	/* 4 values pushed */
46 8 6 0
CALL[ ]	/* CallFunction */
NPUSHB[ ]	/* 8 values pushed */
3 22 23 26 27 30 31 7
NPUSHB[ ]	/* 5 values pushed */
1 24 25 32 4
NPUSHW[ ]	/* 4 values pushed */
46 2 0 0
CALL[ ]	/* CallFunction */
PUSHW[ ]	/* 1 value pushed */
12
PUSHB[ ]	/* 1 value pushed */
0
MIAP[1]	/* MoveIndirectAbsPt */
NPUSHB[ ]	/* 2 values pushed */
13 1
PUSHB[ ]	/* 1 value pushed */
1
LOOPCALL[ ]	/* LoopAndCallFunction */
PUSHW[ ]	/* 1 value pushed */
8
PUSHB[ ]	/* 1 value pushed */
1
MIAP[1]	/* MoveIndirectAbsPt */
NPUSHB[ ]	/* 12 values pushed */
6 7 9 10 11 14 15 16 17 18 19 11
PUSHB[ ]	/* 1 value pushed */
1
LOOPCALL[ ]	/* LoopAndCallFunction */
PUSHW[ ]	/* 1 value pushed */
0
PUSHB[ ]	/* 1 value pushed */
4
MIAP[1]	/* MoveIndirectAbsPt */
NPUSHB[ ]	/* 13 values pushed */
1 2 3 22 23 24 25 26 27 30 31 32 12
PUSHB[ ]	/* 1 value pushed */
1
LOOPCALL[ ]	/* LoopAndCallFunction */
IUP[0]	/* InterpolateUntPts */";
formatVersion = "1";
id = f9f7982fcb10d6906c15f1fc63803643ceac833cbcce70ef1031de4d13d9a6a08996f783413ee1be0c25bb607e9de042b6c845ec9cac6c83a060cb63ad211d59;
};
};
width = 773;
}
);
unicode = 88;
},
{
color = (181,255,255,255);
glyphname = Y;
layers = (
{
layerId = m001;
shapes = (
{
closed = 1;
nodes = (
(21,700,l),
(107,700,l),
(329,326,l),
(329,50,l),
(243,50,l),
(243,0,l),
(476,0,l),
(476,50,l),
(390,50,l),
(390,326,l),
(621,700,l),
(707,700,l),
(707,750,l),
(474,750,l),
(474,700,l),
(559,700,l),
(361,380,l),
(358,380,l),
(169,700,l),
(254,700,l),
(254,750,l),
(21,750,l)
);
}
);
userData = {
public.truetype.instructions = {
assembly = "RTG[ ]	/* RoundToGrid */
SVTCA[1]	/* SetFPVectorToAxis */
NPUSHB[ ]	/* 2 values pushed */
13 1
NPUSHB[ ]	/* 2 values pushed */
19 1
NPUSHW[ ]	/* 4 values pushed */
54 12 18 0
CALL[ ]	/* CallFunction */
IUP[1]	/* InterpolateUntPts */
RTG[ ]	/* RoundToGrid */
SVTCA[0]	/* SetFPVectorToAxis */
NPUSHB[ ]	/* 5 values pushed */
1 8 9 22 4
NPUSHB[ ]	/* 8 values pushed */
3 6 7 10 11 20 21 7
NPUSHW[ ]	/* 4 values pushed */
46 0 2 0
CALL[ ]	/* CallFunction */
NPUSHB[ ]	/* 4 values pushed */
14 17 18 3
NPUSHB[ ]	/* 2 values pushed */
16 1
NPUSHW[ ]	/* 4 values pushed */
46 13 15 0
CALL[ ]	/* CallFunction */
PUSHW[ ]	/* 1 value pushed */
0
PUSHB[ ]	/* 1 value pushed */
1
MIAP[1]	/* MoveIndirectAbsPt */
NPUSHB[ ]	/* 13 values pushed */
1 2 3 6 7 8 9 10 11 20 21 22 12
PUSHB[ ]	/* 1 value pushed */
1
LOOPCALL[ ]	/* LoopAndCallFunction */
PUSHW[ ]	/* 1 value pushed */
15
PUSHB[ ]	/* 1 value pushed */
4
MIAP[1]	/* MoveIndirectAbsPt */
NPUSHB[ ]	/* 6 values pushed */
13 14 16 17 18 5
PUSHB[ ]	/* 1 value pushed */
1
LOOPCALL[ ]	/* LoopAndCallFunction */
IUP[0]	/* InterpolateUntPts */";
formatVersion = "1";
id = 2765cee266874c8623920f3c8c43d8b19b1d64b235b370dda747c2cf38ca6cbe75aa27cea1d3cf6d518621e311aaed1ce78569c052cffe1c87428273b5a74e11;
};
};
width = 728;
}
);
unicode = 89;
},
{
color = (181,255,255,255);
glyphname = Z;
layers = (
{
layerId = m001;
shapes = (
{
closed = 1;
nodes = (
(102,557,l),
(46,557,l),
(46,750,l),
(554,750,l),
(554,700,l),
(113,50,l),
(493,50,l),
(493,199,l),
(549,199,l),
(549,0,l),
(45,0,l),
(45,50,l),
(485,700,l),
(102,700,l),
(102,700,l)
);
}
);
width = 599;
}
);
unicode = 90;
},
{
glyphname = bracketleft;
layers = (
{
layerId = m001;
shapes = (
{
closed = 1;
nodes = (
(229,-36,l),
(81,-36,l),
(81,731,l),
(229,731,l),
(229,781,l),
(25,781,l),
(25,-85,l),
(229,-85,l)
);
}
);
width = 279;
}
);
unicode = 91;
},
{
glyphname = backslash;
layers = (
{
layerId = m001;
shapes = (
{
closed = 1;
nodes = (
(47,763,l),
(-1,763,l),
(242,-16,l),
(290,-16,l)
);
}
);
width = 288;
}
);
unicode = 92;
},
{
glyphname = bracketright;
layers = (
{
layerId = m001;
shapes = (
{
closed = 1;
nodes = (
(254,-85,l),
(254,781,l),
(50,781,l),
(50,731,l),
(198,731,l),
(198,-36,l),
(50,-36,l),
(50,-85,l)
);
}
);
width = 279;
}
);
unicode = 93;
},
{
glyphname = asciicircum;
layers = (
{
layerId = m001;
shapes = (
{
closed = 1;
nodes = (
(300,642,l),
(452,341,l),
(507,341,l),
(323,706,l),
(277,706,l),
(93,341,l),
(148,341,l)
);
}
);
width = 600;
}
);
unicode = 94;
},
{
glyphname = underscore;
layers = (
{
layerId = m001;
shapes = (
{
closed = 1;
nodes = (
(509,0,l),
(509,38,l),
(-3,38,l),
(-3,0,l)
);
}
);
width = 506;
}
);
unicode = 95;
},
{
glyphname = grave;
layers = (
{
layerId = m001;
shapes = (
{
closed = 1;
nodes = (
(202,575,l),
(91,714,l),
(14,714,l),
(152,575,l)
);
}
);
width = 278;
}
);
unicode = 96;
},
{
color = (181,255,255,255);
glyphname = a;
layers = (
{
guides = (
{
pos = (457,242);
userData = {
UFO.identifier = R9v2bfRP2L;
};
},
{
pos = (266,423);
userData = {
UFO.identifier = 1I7KxtEumO;
};
},
{
pos = (322,53);
userData = {
UFO.identifier = 8lDfjuSzkt;
};
}
);
layerId = m001;
shapes = (
{
closed = 1;
nodes = (
(489,472,l),
(488.014,374,l),
(477,389,o),
(465,404,qs),
(404,473,o),
(191.413,472.684,o),
(51,334,o),
(51,234,qs),
(50,133,o),
(190,0,o),
(298,0,qs),
(404,0,o),
(465,67,qs),
(477,80,o),
(486.014,95,q),
(487,0,l),
(612.014,0,l),
(612.014,50,l),
(546.014,50,l),
(546.014,425,l),
(611.014,425,l),
(612,472,l)
);
},
{
closed = 1;
nodes = (
(486.014,235,ls),
(486.014,149,o),
(383,54,o),
(300,54,qs),
(215,54,o),
(110.808,148.274,o),
(110.808,319.435,o),
(214,418,o),
(298,418,qs),
(383,418,o),
(486.014,321,o),
(486.014,236,qs)
);
},
{
closed = 1;
nodes = (
(488.014,374,l),
(486.014,95,l)
);
}
);
width = 642;
}
);
unicode = 97;
},
{
color = (181,255,255,255);
glyphname = b;
layers = (
{
layerId = m001;
shapes = (
{
closed = 1;
nodes = (
(16,700,l),
(89,700,l),
(89,50,l),
(15,50,l),
(15,0,l),
(141,0,l),
(141,98,l),
(142,97,o),
(143,95,q),
(152,80,o),
(164,67,qs),
(225,0,o),
(332,0,qs),
(440,0,o),
(581,134,o),
(580,235,qs),
(580,336,o),
(439,475,o),
(225,475,o),
(164,406,qs),
(152,391,o),
(141,374,q),
(141,750,l),
(16,750,l)
);
},
{
closed = 1;
nodes = (
(143,321,o),
(246,420,o),
(332,420,qs),
(416,420,o),
(520,321,o),
(520,149,o),
(415,54,o),
(330,54,qs),
(246,54,o),
(143,149,o),
(143,235,qs),
(143,236,ls)
);
}
);
width = 630;
}
);
unicode = 98;
},
{
color = (181,255,255,255);
glyphname = c;
layers = (
{
layerId = m001;
shapes = (
{
closed = 1;
nodes = (
(503,321,o),
(503,321,c),
(503,477,l),
(452,477,l),
(452,411,l),
(409,456,o),
(348,480,o),
(280,480,c),
(145,480,o),
(46,399,o),
(46,242,c),
(48,66,o),
(143,-3,o),
(281,-3,c),
(464,-3,o),
(501,114,o),
(501,114,c),
(451,134,l),
(451,134,o),
(423,49,o),
(281,49,cs),
(181,49,o),
(99,103,o),
(99,242,c),
(99,376,o),
(200,426,o),
(281,426,c),
(352,426,o),
(423,397,o),
(452,322,c),
(452,321,o),
(502,322,o),
(503,321,cs),
(503,321,o)
);
}
);
width = 547;
}
);
unicode = 99;
},
{
color = (181,255,255,255);
glyphname = d;
layers = (
{
layerId = m001;
shapes = (
{
closed = 1;
nodes = (
(414.014,700,l),
(487.014,700,l),
(487.014,374,l),
(476.014,391,o),
(464.014,406,qs),
(403.014,475,o),
(189.014,475,o),
(48.014,336,o),
(48.014,235,qs),
(47.014,134,o),
(188.014,0,o),
(296.014,0,qs),
(403.014,0,o),
(464.014,67,qs),
(476.014,80,o),
(485.014,95,q),
(486.014,97,o),
(487.014,98,q),
(487.014,0,l),
(613.014,0,l),
(613.014,50,l),
(539.014,50,l),
(539.014,750,l),
(414.014,750,l)
);
},
{
closed = 1;
nodes = (
(485.014,218,o),
(484.014,213,q),
(477.014,137,o),
(377.014,54,o),
(298.014,54,qs),
(213.014,54,o),
(108.014,149,o),
(108.014,321,o),
(212.014,420,o),
(296.014,420,qs),
(376.014,420,o),
(477.014,333,o),
(484.014,258,q),
(485.014,252,o),
(485.014,247,qs),
(485.014,224,ls)
);
}
);
width = 640;
}
);
unicode = 100;
},
{
color = (181,255,255,255);
glyphname = e;
layers = (
{
background = {
guides = (
{
pos = (457,242);
},
{
pos = (266,423);
},
{
pos = (322,53);
},
{
pos = (457,242);
},
{
pos = (266,423);
},
{
pos = (322,53);
}
);
shapes = (
{
closed = 1;
nodes = (
(509,221,o),
(510,243,o),
(510,244,cs),
(510,397,o),
(405,480,o),
(276,480,c),
(141,480,o),
(44,397,o),
(44,242,c),
(46,66,o),
(139,-3,o),
(277,-3,c),
(378,-3,o),
(455,33,o),
(490,120,c),
(441,142,l),
(441,141,o),
(440,141,o),
(440,140,cs),
(409,72,o),
(346,48,o),
(277,49,cs),
(177,51,o),
(101,103,o),
(101,221,c),
(456,221,l),
(456,221,l),
(509,221,l)
);
},
{
closed = 1;
nodes = (
(369,429,o),
(454,375,o),
(454,267,c),
(101,267,l),
(101,375,o),
(191,432,o),
(277,429,c)
);
},
{
closed = 1;
nodes = (
(490,120,l),
(491,119,l),
(490,120,ls)
);
}
);
};
guides = (
{
pos = (457,242);
},
{
pos = (266,423);
},
{
pos = (322,53);
},
{
pos = (457,242);
},
{
pos = (266,423);
},
{
pos = (322,53);
}
);
layerId = m001;
shapes = (
{
closed = 1;
nodes = (
(509,221,o),
(510,243,o),
(510,244,cs),
(510,397,o),
(405,480,o),
(276,480,c),
(141,480,o),
(44,397,o),
(44,242,c),
(46,66,o),
(139,-3,o),
(277,-3,c),
(378,-3,o),
(455,33,o),
(490,120,c),
(441,142,l),
(441,141,o),
(440,141,o),
(440,140,cs),
(409,72,o),
(346,48,o),
(277,49,cs),
(177,51,o),
(101,103,o),
(101,221,c),
(456,221,l),
(456,221,l),
(509,221,l)
);
},
{
closed = 1;
nodes = (
(369,429,o),
(454,375,o),
(454,267,c),
(101,267,l),
(101,375,o),
(191,432,o),
(277,429,c)
);
},
{
closed = 1;
nodes = (
(490,120,l),
(491,119,l),
(490,120,ls)
);
}
);
width = 554;
}
);
unicode = 101;
},
{
color = (181,255,255,255);
glyphname = f;
layers = (
{
layerId = m001;
shapes = (
{
closed = 0;
nodes = (
(36,589,l)
);
},
{
closed = 0;
nodes = (
(36,589,l)
);
},
{
closed = 1;
nodes = (
(82,0,l),
(82,50,l),
(164,50,l),
(164,425,l),
(84,425,l),
(84,475,l),
(164,475,l),
(164,635,l),
(164,690,o),
(220,738,o),
(252,745,q),
(265,748,o),
(290,750,o),
(300,750,q),
(339,751,l),
(339,700,l),
(320,700,l),
(270,699,o),
(222,681,o),
(222,628,q),
(222,475,l),
(312,475,l),
(312,425,l),
(222,425,l),
(222,50,l),
(312,50,l),
(312,0,l),
(312,0,l)
);
}
);
width = 358;
}
);
unicode = 102;
},
{
color = (181,255,255,255);
glyphname = g;
layers = (
{
guides = (
{
pos = (457,242);
},
{
pos = (266,423);
},
{
pos = (322,53);
}
);
layerId = m001;
shapes = (
{
closed = 1;
nodes = (
(487,427,o),
(487,427,o),
(487,427,cs),
(487,427,o),
(487,406,o),
(487,374,c),
(476,391,o),
(464,406,qs),
(403,475,o),
(189,475,o),
(48,336,o),
(48,235,qs),
(47,134,o),
(188,0,o),
(296,0,qs),
(403,0,o),
(464,67,qs),
(476,80,o),
(485,95,q),
(486,218,l),
(485,131,o),
(485,50,o),
(485,50,c),
(485,1,ls),
(482,-100,o),
(394,-163,o),
(299,-161,cs),
(297,-161,ls),
(220,-159,o),
(137,-128,o),
(110,-51,c),
(61,-74,l),
(94,-172,o),
(191,-213,o),
(297,-213,cs),
(299,-213,ls),
(437,-213,o),
(534,-136,o),
(535,-1,c),
(535,-1,l),
(535,15,l),
(537,427,l),
(610,427,l),
(610,477,l),
(487,477,l),
(487,427,l)
);
},
{
closed = 1;
nodes = (
(485,235,ls),
(485,149,o),
(382,54,o),
(298,54,qs),
(213,54,o),
(108,149,o),
(108,321,o),
(212,420,o),
(296,420,qs),
(382,420,o),
(485,321,o),
(485,236,qs)
);
}
);
width = 643;
}
);
unicode = 103;
},
{
color = (181,255,255,255);
glyphname = h;
layers = (
{
layerId = m001;
shapes = (
{
closed = 1;
nodes = (
(33,50,l),
(33,0,l),
(244,0,l),
(244,50,l),
(167,50,l),
(167,301,l),
(167,301,o),
(235,456,o),
(367,420,cs),
(401,411,o),
(433,371,o),
(434,322,c),
(434,50,l),
(357,50,l),
(357,0,l),
(565,0,l),
(565,50,l),
(494,50,l),
(494,323,l),
(494,403,o),
(444,477,o),
(321,477,c),
(223,477,o),
(177,404,o),
(167,387,c),
(167,749,l),
(34,749,l),
(34,700,l),
(107,700,l),
(107,50,l)
);
}
);
width = 595;
}
);
unicode = 104;
},
{
color = (181,255,255,255);
glyphname = i;
layers = (
{
layerId = m001;
shapes = (
{
closed = 1;
nodes = (
(167,619,o),
(191,644,o),
(191,674,cs),
(191,703,o),
(167,728,o),
(139,728,cs),
(109,728,o),
(86,703,o),
(86,674,cs),
(86,644,o),
(109,619,o),
(139,619,cs)
);
},
{
closed = 1;
nodes = (
(262,0,l),
(262,52,l),
(179,52,l),
(179,475,l),
(36,475,l),
(36,423,l),
(119,423,l),
(119,52,l),
(36,52,l),
(36,0,l)
);
}
);
width = 297;
}
);
unicode = 105;
},
{
color = (181,255,255,255);
glyphname = j;
layers = (
{
layerId = m001;
shapes = (
{
closed = 1;
nodes = (
(-69,-172,o),
(-37,-200,o),
(19,-200,cs),
(77,-200,o),
(127,-170,o),
(150,-102,cs),
(161,-68,o),
(168,-26,o),
(168,30,cs),
(168,475,l),
(20,475,l),
(20,424,l),
(108,424,l),
(108,21,ls),
(108,-23,o),
(103,-58,o),
(96,-83,cs),
(83,-131,o),
(55,-149,o),
(23,-149,cs),
(16,-149,o),
(-15,-151,o),
(-35,-116,c),
(-79,-136,l)
);
},
{
closed = 1;
nodes = (
(154,614,o),
(176,637,o),
(176,666,cs),
(176,694,o),
(154,718,o),
(127,718,cs),
(98,718,o),
(76,694,o),
(76,666,cs),
(76,637,o),
(98,614,o),
(127,614,cs)
);
}
);
width = 219;
}
);
unicode = 106;
},
{
color = (181,255,255,255);
glyphname = k;
layers = (
{
layerId = m001;
shapes = (
{
closed = 1;
nodes = (
(34,697,l),
(109,697,l),
(109,50,l),
(33,50,l),
(33,0,l),
(244,0,l),
(244,50,l),
(166,50,l),
(166,225,l),
(166,226,l),
(222,267,l),
(367,50,l),
(307,50,l),
(307,0,l),
(505,0,l),
(505,52,l),
(431,52,l),
(265,300,l),
(437,428,l),
(503,428,l),
(503,478,l),
(305,478,l),
(305,428,l),
(364,428,l),
(166,282,l),
(166,749,l),
(34,749,l)
);
}
);
width = 522;
}
);
unicode = 107;
},
{
color = (181,255,255,255);
glyphname = l;
layers = (
{
layerId = m001;
shapes = (
{
closed = 1;
nodes = (
(38,697,l),
(113,697,l),
(113,50,l),
(36,50,l),
(36,0,l),
(249,0,l),
(249,50,l),
(172,50,l),
(172,50,o),
(172,749,o),
(172,749,c),
(38,749,l)
);
}
);
width = 284;
}
);
unicode = 108;
},
{
color = (181,255,255,255);
glyphname = m;
layers = (
{
layerId = m001;
shapes = (
{
closed = 1;
nodes = (
(46,426,l),
(119,426,l),
(119,50,l),
(45,50,l),
(45,0,l),
(256,0,l),
(256,50,l),
(179,50,l),
(179,301,l),
(179,301,o),
(247,456,o),
(379,420,cs),
(413,411,o),
(445,371,o),
(446,322,c),
(446,50,l),
(369,50,l),
(369,0,l),
(577,0,l),
(577,50,l),
(506,50,l),
(506,301,l),
(506,301,o),
(574,456,o),
(706,420,cs),
(740,411,o),
(772,371,o),
(773,322,c),
(773,50,l),
(696,50,l),
(696,0,l),
(904,0,l),
(904,50,l),
(833,50,l),
(833,323,l),
(833,403,o),
(783,477,o),
(660,477,c),
(585,477,o),
(528,411,o),
(499,371,c),
(480,428,o),
(428,477,o),
(333,477,c),
(221,477,o),
(177,383,o),
(177,383,c),
(177,475,l),
(46,475,l)
);
}
);
width = 934;
}
);
unicode = 109;
},
{
color = (181,255,255,255);
glyphname = n;
layers = (
{
layerId = m001;
shapes = (
{
closed = 1;
nodes = (
(46,426,l),
(119,426,l),
(119,50,l),
(45,50,l),
(45,0,l),
(256,0,l),
(256,50,l),
(179,50,l),
(179,296,l),
(179,296,o),
(247,456,o),
(379,420,cs),
(413,411,o),
(445,366,o),
(446,317,c),
(446,50,l),
(369,50,l),
(369,0,l),
(577,0,l),
(577,50,l),
(506,50,l),
(506,318,l),
(506,398,o),
(456,477,o),
(333,477,c),
(221,477,o),
(177,378,o),
(177,378,c),
(177,475,l),
(46,475,l)
);
}
);
width = 607;
}
);
unicode = 110;
},
{
color = (181,255,255,255);
glyphname = o;
layers = (
{
background = {
guides = (
{
pos = (457,242);
},
{
pos = (266,423);
},
{
pos = (322,53);
}
);
shapes = (
{
closed = 1;
nodes = (
(432,-1,o),
(536,106,o),
(536,240,cs),
(536,373,o),
(432,479,o),
(292,479,cs),
(152,479,o),
(48,373,o),
(48,240,cs),
(48,106,o),
(152,-1,o),
(292,-1,cs)
);
},
{
closed = 1;
nodes = (
(188,50,o),
(107,128,o),
(107,240,cs),
(107,349,o),
(188,428,o),
(292,428,cs),
(395,428,o),
(477,349,o),
(477,240,cs),
(477,128,o),
(395,50,o),
(292,50,cs)
);
}
);
};
guides = (
{
pos = (457,242);
userData = {
UFO.identifier = JTXbQIpMH4;
};
},
{
pos = (266,423);
userData = {
UFO.identifier = BlFTm68d4j;
};
},
{
pos = (322,53);
userData = {
UFO.identifier = 0IgaSHhR3p;
};
}
);
layerId = m001;
shapes = (
{
closed = 1;
nodes = (
(432,-6,o),
(536,102,o),
(536,239,cs),
(536,374,o),
(432,481,o),
(292,481,cs),
(152,481,o),
(48,374,o),
(48,239,cs),
(48,102,o),
(152,-6,o),
(292,-6,cs)
);
},
{
closed = 1;
nodes = (
(188,46,o),
(107,125,o),
(107,239,cs),
(107,350,o),
(188,429,o),
(292,429,cs),
(395,429,o),
(477,350,o),
(477,239,cs),
(477,125,o),
(395,46,o),
(292,46,cs)
);
}
);
width = 584;
}
);
unicode = 111;
},
{
color = (181,255,255,255);
glyphname = p;
layers = (
{
layerId = m001;
shapes = (
{
closed = 1;
nodes = (
(23,-215,l),
(220,-215,l),
(220,-165,l),
(151,-165,l),
(151,95,l),
(160,80,o),
(172,67,qs),
(233,0,o),
(340,0,qs),
(448,0,o),
(589,134,o),
(588,235,qs),
(588,336,o),
(447.014,475,o),
(233,475,o),
(172,406,qs),
(160,391,o),
(149,374,q),
(149,477,l),
(26,477,l),
(26,425,l),
(92,425,l),
(92,-165,l),
(23,-165,l)
);
},
{
closed = 1;
nodes = (
(151,321,o),
(254,420,o),
(340,420,qs),
(424,420,o),
(528.014,321,o),
(528.014,149,o),
(423,54,o),
(338,54,qs),
(254,54,o),
(151,149,o),
(151,235,qs),
(151,236,ls)
);
},
{
closed = 1;
nodes = (
(149,373,o),
(149,374,q),
(148,373,l)
);
}
);
width = 618;
}
);
unicode = 112;
},
{
color = (181,255,255,255);
glyphname = q;
layers = (
{
layerId = m001;
shapes = (
{
closed = 1;
nodes = (
(544.014,-165,l),
(544.014,425,l),
(610.014,425,l),
(610.014,477,l),
(487.014,477,l),
(487.014,374,l),
(476.014,391,o),
(464.014,406,qs),
(403.014,475,o),
(189.014,475,o),
(48.014,336,o),
(48.014,235,qs),
(47.014,134,o),
(188.014,0,o),
(296.014,0,qs),
(403.014,0,o),
(464.014,67,qs),
(476.014,80,o),
(485.014,95,q),
(485.014,-165,l),
(416.014,-165,l),
(416.014,-215,l),
(613.014,-215,l),
(613.014,-165,l)
);
},
{
closed = 1;
nodes = (
(485.014,235,ls),
(485.014,149,o),
(382.014,54,o),
(298.014,54,qs),
(213.014,54,o),
(108.014,149,o),
(108.014,321,o),
(212.014,420,o),
(296.014,420,qs),
(382.014,420,o),
(485.014,321,o),
(485.014,236,qs)
);
},
{
closed = 1;
nodes = (
(487.014,374,l),
(487.014,373,o),
(488.014,373,q)
);
}
);
width = 618;
}
);
unicode = 113;
},
{
color = (181,255,255,255);
glyphname = r;
layers = (
{
layerId = m001;
shapes = (
{
closed = 1;
nodes = (
(46,425,l),
(121,425,l),
(121,50,l),
(45,50,l),
(45,0,l),
(257,0,l),
(257,50,l),
(181,50,l),
(181,326,l),
(181,326,o),
(233,458,o),
(311,425,cs),
(341,412,o),
(355,375,o),
(355,375,c),
(395,410,l),
(379,459,o),
(338,485,o),
(300,487,c),
(212,491,o),
(179,395,o),
(179,395,c),
(179,477,l),
(46,477,l)
);
}
);
width = 406;
}
);
unicode = 114;
},
{
color = (181,255,255,255);
glyphname = s;
layers = (
{
layerId = m001;
shapes = (
{
closed = 1;
nodes = (
(93,0,l),
(93,55,l),
(115,19,o),
(178,-10,o),
(249,-10,c),
(312,-11,o),
(402,26,o),
(402,133,cs),
(402,214,o),
(324,245,o),
(233,269,c),
(144,295,o),
(105,310,o),
(102,364,c),
(102,436,o),
(146,449,o),
(200,450,c),
(256,450,o),
(314,415,o),
(330,351,c),
(375,351,l),
(375,487,l),
(329,487,l),
(329,448,l),
(307,474,o),
(268,496,o),
(196,496,c),
(133,497,o),
(47,469,o),
(47,362,cs),
(47,291,o),
(99,257,o),
(204,226,cs),
(312,194,o),
(342,180,o),
(346,129,c),
(346,61,o),
(297,39,o),
(244,38,c),
(188,40,o),
(93,60,o),
(93,167,cs),
(93,168,l),
(47,168,l),
(47,0,l)
);
}
);
userData = {
public.truetype.instructions = {
assembly = "RTG[ ]	/* RoundToGrid */
SVTCA[1]	/* SetFPVectorToAxis */
PUSHB[ ]	/* 1 value pushed */
0
PUSHB[ ]	/* 1 value pushed */
0
NPUSHW[ ]	/* 4 values pushed */
50 53 13 0
CALL[ ]	/* CallFunction */
NPUSHB[ ]	/* 4 values pushed */
44 65 66 3
NPUSHB[ ]	/* 3 values pushed */
67 68 2
NPUSHW[ ]	/* 4 values pushed */
44 1 0 0
CALL[ ]	/* CallFunction */
NPUSHB[ ]	/* 2 values pushed */
34 1
NPUSHB[ ]	/* 2 values pushed */
32 1
NPUSHW[ ]	/* 4 values pushed */
44 33 31 0
CALL[ ]	/* CallFunction */
IUP[1]	/* InterpolateUntPts */
RTG[ ]	/* RoundToGrid */
SVTCA[0]	/* SetFPVectorToAxis */
NPUSHB[ ]	/* 2 values pushed */
33 1
NPUSHB[ ]	/* 2 values pushed */
38 1
NPUSHW[ ]	/* 4 values pushed */
34 32 31 0
CALL[ ]	/* CallFunction */
NPUSHB[ ]	/* 2 values pushed */
33 1
NPUSHB[ ]	/* 2 values pushed */
35 1
NPUSHW[ ]	/* 4 values pushed */
138 32 34 0
CALL[ ]	/* CallFunction */
NPUSHB[ ]	/* 3 values pushed */
1 68 2
NPUSHB[ ]	/* 2 values pushed */
67 1
NPUSHW[ ]	/* 4 values pushed */
159 0 66 0
CALL[ ]	/* CallFunction */
PUSHB[ ]	/* 1 value pushed */
0
NPUSHB[ ]	/* 2 values pushed */
38 1
NPUSHW[ ]	/* 4 values pushed */
46 28 31 0
CALL[ ]	/* CallFunction */
PUSHB[ ]	/* 1 value pushed */
0
PUSHB[ ]	/* 1 value pushed */
0
NPUSHW[ ]	/* 4 values pushed */
46 7 59 0
CALL[ ]	/* CallFunction */
PUSHW[ ]	/* 1 value pushed */
32
PUSHB[ ]	/* 1 value pushed */
0
MIAP[1]	/* MoveIndirectAbsPt */
NPUSHB[ ]	/* 5 values pushed */
28 31 33 38 4
PUSHB[ ]	/* 1 value pushed */
1
LOOPCALL[ ]	/* LoopAndCallFunction */
PUSHW[ ]	/* 1 value pushed */
66
PUSHB[ ]	/* 1 value pushed */
4
MIAP[1]	/* MoveIndirectAbsPt */
NPUSHB[ ]	/* 4 values pushed */
7 59 67 3
PUSHB[ ]	/* 1 value pushed */
1
LOOPCALL[ ]	/* LoopAndCallFunction */
IUP[0]	/* InterpolateUntPts */";
formatVersion = "1";
id = d1d2445ffd1ca79b04f8e8002db972afd49fd9a136ce7fd412c218f0aaf2b2d5309dedee5d142960d1b3fcc0ab41fb4c541bfc3fa93e6c96456d66c131b52ff6;
};
};
width = 446;
}
);
unicode = 115;
},
{
color = (181,255,255,255);
glyphname = t;
layers = (
{
layerId = m001;
shapes = (
{
closed = 1;
nodes = (
(177,751,l),
(177,701,l),
(177,701,l),
(177,476,l),
(287,476,l),
(287,426,l),
(177,426,l),
(177,123,l),
(177,70,o),
(225,52,o),
(275,51,q),
(294,51,l),
(294,0,l),
(255,1,l),
(245,1,o),
(220,3,o),
(207,6,q),
(175,13,o),
(119,61,o),
(119,116,q),
(119,426,l),
(19,426,l),
(19,476,l),
(119,476,l),
(119,701,l),
(118,701,l),
(118,751,l),
(177,751,l)
);
}
);
width = 330;
}
);
unicode = 116;
},
{
color = (181,255,255,255);
glyphname = u;
layers = (
{
layerId = m001;
shapes = (
{
closed = 1;
nodes = (
(561,49,l),
(488,49,l),
(488,425,l),
(488,425,l),
(488,475,l),
(351,475,l),
(351,425,l),
(428,425,l),
(428,174,l),
(428,174,o),
(360,19,o),
(228,55,cs),
(194,64,o),
(162,94,o),
(161,143,c),
(161,425,l),
(161,425,l),
(161,475,l),
(30,475,l),
(30,425,l),
(101,425,l),
(101,125,l),
(101,76,o),
(151,-2,o),
(274,-2,c),
(386,-2,o),
(430,92,o),
(430,92,c),
(430,0,l),
(561,0,l)
);
}
);
width = 594;
}
);
unicode = 117;
},
{
color = (181,255,255,255);
glyphname = v;
layers = (
{
layerId = m001;
shapes = (
{
closed = 1;
nodes = (
(82,429,l),
(8,429,l),
(8,475,l),
(215,475,l),
(215,429,l),
(145,429,l),
(288,87,l),
(423,429,l),
(344,429,l),
(344,475,l),
(558,475,l),
(558,429,l),
(484,429,l),
(308,0,l),
(267,0,l),
(267,0,l)
);
}
);
width = 566;
}
);
unicode = 118;
},
{
color = (181,255,255,255);
glyphname = w;
layers = (
{
layerId = m001;
shapes = (
{
closed = 1;
nodes = (
(293,0,l),
(252,0,l),
(90,428,l),
(8,428,l),
(8,475,l),
(228,475,l),
(228,428,l),
(149,428,l),
(271,107,l),
(273,107,l),
(368,428,l),
(292,428,l),
(292,475,l),
(536,475,l),
(536,428,l),
(460,428,l),
(554,107,l),
(556,107,l),
(681,428,l),
(602,428,l),
(602,475,l),
(820,475,l),
(820,428,l),
(738,428,l),
(575,0,l),
(534,0,l),
(415,390,l),
(413,390,l),
(413,390,l)
);
}
);
width = 828;
}
);
unicode = 119;
},
{
color = (181,255,255,255);
glyphname = x;
layers = (
{
layerId = m001;
shapes = (
{
closed = 1;
nodes = (
(24,0,l),
(24,47,l),
(89,47,l),
(245,245,l),
(109,428,l),
(37,428,l),
(37,475,l),
(242,475,l),
(242,428,l),
(180,428,l),
(279,290,l),
(391,428,l),
(327,428,l),
(327,475,l),
(535,475,l),
(535,428,l),
(464,428,l),
(312,245,l),
(461,47,l),
(535,47,l),
(535,0,l),
(327,0,l),
(327,47,l),
(393,47,l),
(279,203,l),
(159,47,l),
(229,47,l),
(229,0,l),
(229,0,l)
);
}
);
width = 559;
}
);
unicode = 120;
},
{
color = (181,255,255,255);
glyphname = y;
layers = (
{
layerId = m001;
shapes = (
{
closed = 1;
nodes = (
(509,426,l),
(224,-167,l),
(316,-167,l),
(316,-215,l),
(94,-215,l),
(94,-167,l),
(164,-167,l),
(263,40,l),
(80,426,l),
(7,426,l),
(7,475,l),
(219,475,l),
(219,426,l),
(140,426,l),
(292,102,l),
(449,426,l),
(374,426,l),
(374,475,l),
(590,475,l),
(590,426,l),
(590,426,l)
);
}
);
userData = {
public.truetype.instructions = {
assembly = "RTG[ ]	/* RoundToGrid */
SVTCA[1]	/* SetFPVectorToAxis */
NPUSHB[ ]	/* 2 values pushed */
13 1
NPUSHB[ ]	/* 2 values pushed */
11 1
NPUSHW[ ]	/* 4 values pushed */
198 12 10 0
CALL[ ]	/* CallFunction */
IUP[1]	/* InterpolateUntPts */
RTG[ ]	/* RoundToGrid */
SVTCA[0]	/* SetFPVectorToAxis */
NPUSHB[ ]	/* 4 values pushed */
12 18 19 3
NPUSHB[ ]	/* 9 values pushed */
1 9 10 13 14 16 17 20 8
NPUSHW[ ]	/* 4 values pushed */
46 11 0 0
CALL[ ]	/* CallFunction */
NPUSHB[ ]	/* 4 values pushed */
3 6 7 3
NPUSHB[ ]	/* 2 values pushed */
5 1
NPUSHW[ ]	/* 4 values pushed */
46 2 4 0
CALL[ ]	/* CallFunction */
PUSHW[ ]	/* 1 value pushed */
11
PUSHB[ ]	/* 1 value pushed */
0
MIAP[1]	/* MoveIndirectAbsPt */
NPUSHB[ ]	/* 13 values pushed */
0 1 9 10 12 13 14 16 17 18 19 20 12
PUSHB[ ]	/* 1 value pushed */
1
LOOPCALL[ ]	/* LoopAndCallFunction */
PUSHW[ ]	/* 1 value pushed */
8
PUSHB[ ]	/* 1 value pushed */
4
MIAP[1]	/* MoveIndirectAbsPt */
NPUSHB[ ]	/* 1 value pushed */
0
PUSHB[ ]	/* 1 value pushed */
1
LOOPCALL[ ]	/* LoopAndCallFunction */
IUP[0]	/* InterpolateUntPts */";
formatVersion = "1";
id = 025fdf87b0ce23c06aae091f7741a52c30b1d3b078226626cea966938094a9a3077b693865ec37cf9e5a714c9861f28feb2e2412317fe9008d3a03fa20b80077;
};
};
width = 597;
}
);
unicode = 121;
},
{
color = (181,255,255,255);
glyphname = z;
layers = (
{
layerId = m001;
shapes = (
{
closed = 1;
nodes = (
(115,55,l),
(390,55,l),
(390,136,l),
(442,136,l),
(442,0,l),
(40,0,l),
(40,54,l),
(356,420,l),
(100,420,l),
(100,344,l),
(47,344,l),
(47,475,l),
(437,475,l),
(437,420,l),
(437,420,l)
);
}
);
userData = {
public.truetype.instructions = {
assembly = "RTG[ ]	/* RoundToGrid */
SVTCA[1]	/* SetFPVectorToAxis */
NPUSHB[ ]	/* 2 values pushed */
5 1
NPUSHB[ ]	/* 2 values pushed */
3 1
NPUSHW[ ]	/* 4 values pushed */
50 4 2 0
CALL[ ]	/* CallFunction */
NPUSHB[ ]	/* 2 values pushed */
10 1
NPUSHB[ ]	/* 2 values pushed */
12 1
NPUSHW[ ]	/* 4 values pushed */
50 9 11 0
CALL[ ]	/* CallFunction */
IUP[1]	/* InterpolateUntPts */
RTG[ ]	/* RoundToGrid */
SVTCA[0]	/* SetFPVectorToAxis */
NPUSHB[ ]	/* 2 values pushed */
13 1
NPUSHB[ ]	/* 4 values pushed */
8 9 14 3
NPUSHW[ ]	/* 4 values pushed */
46 12 0 0
CALL[ ]	/* CallFunction */
NPUSHB[ ]	/* 3 values pushed */
2 7 2
NPUSHB[ ]	/* 2 values pushed */
6 1
NPUSHW[ ]	/* 4 values pushed */
46 1 5 0
CALL[ ]	/* CallFunction */
PUSHW[ ]	/* 1 value pushed */
12
PUSHB[ ]	/* 1 value pushed */
0
MIAP[1]	/* MoveIndirectAbsPt */
NPUSHB[ ]	/* 6 values pushed */
0 8 9 13 14 5
PUSHB[ ]	/* 1 value pushed */
1
LOOPCALL[ ]	/* LoopAndCallFunction */
PUSHW[ ]	/* 1 value pushed */
5
PUSHB[ ]	/* 1 value pushed */
4
MIAP[1]	/* MoveIndirectAbsPt */
NPUSHB[ ]	/* 5 values pushed */
1 2 6 7 4
PUSHB[ ]	/* 1 value pushed */
1
LOOPCALL[ ]	/* LoopAndCallFunction */
IUP[0]	/* InterpolateUntPts */";
formatVersion = "1";
id = "w444l409+409l95+45l364+45l364+130l414+130l414+0l30+0l30+45l343+409l87+409l87+328l37+328l37+454l409+454l409+409|";
};
};
width = 481;
}
);
unicode = 122;
},
{
glyphname = braceleft;
layers = (
{
layerId = m001;
shapes = (
{
closed = 1;
nodes = (
(283,-156,l),
(167,-150,o),
(153,-93,o),
(153,-43,cs),
(153,-11,o),
(162,23,o),
(196,61,cs),
(229,96,o),
(250,133,o),
(250,175,cs),
(250,212,o),
(237,270,o),
(143,291,c),
(237,313,o),
(250,371,o),
(250,408,cs),
(250,449,o),
(229,486,o),
(196,522,cs),
(162,560,o),
(153,593,o),
(153,626,cs),
(153,676,o),
(167,733,o),
(283,738,c),
(283,782,l),
(149,779,o),
(99,715,o),
(99,626,cs),
(99,573,o),
(107,543,o),
(157,491,cs),
(183,464,o),
(196,437,o),
(196,407,cs),
(196,349,o),
(144,316,o),
(79,316,cs),
(65,316,l),
(65,267,l),
(79,267,ls),
(144,267,o),
(196,233,o),
(196,176,cs),
(196,145,o),
(193,119,o),
(167,91,cs),
(117,39,o),
(99,10,o),
(99,-43,cs),
(99,-132,o),
(149,-196,o),
(283,-199,c)
);
}
);
width = 328;
}
);
unicode = 123;
},
{
glyphname = bar;
layers = (
{
layerId = m001;
shapes = (
{
closed = 1;
nodes = (
(133,-219,l),
(133,781,l),
(89,781,l),
(89,-219,l)
);
}
);
width = 222;
}
);
unicode = 124;
},
{
glyphname = braceright;
layers = (
{
layerId = m001;
shapes = (
{
closed = 1;
nodes = (
(191,-196,o),
(241,-132,o),
(241,-43,cs),
(241,10,o),
(223,39,o),
(173,91,cs),
(147,119,o),
(144,145,o),
(144,176,cs),
(144,233,o),
(196,267,o),
(261,267,cs),
(275,267,l),
(275,316,l),
(261,316,ls),
(196,316,o),
(144,349,o),
(144,407,cs),
(144,437,o),
(157,464,o),
(183,491,cs),
(233,543,o),
(241,573,o),
(241,626,cs),
(241,715,o),
(191,779,o),
(57,782,c),
(57,738,l),
(173,733,o),
(187,676,o),
(187,626,cs),
(187,593,o),
(178,560,o),
(144,522,cs),
(111,486,o),
(90,449,o),
(90,408,cs),
(90,371,o),
(103,313,o),
(197,291,c),
(103,270,o),
(90,212,o),
(90,175,cs),
(90,133,o),
(111,96,o),
(144,61,cs),
(178,23,o),
(187,-11,o),
(187,-43,cs),
(187,-93,o),
(173,-150,o),
(57,-156,c),
(57,-199,l)
);
}
);
width = 328;
}
);
unicode = 125;
},
{
glyphname = asciitilde;
layers = (
{
layerId = m001;
shapes = (
{
closed = 1;
nodes = (
(472,345,o),
(447,308,o),
(407,308,cs),
(381,308,o),
(346,325,o),
(309,342,cs),
(272,359,o),
(232,376,o),
(194,376,cs),
(127,376,o),
(91,332,o),
(69,290,c),
(105,254,l),
(121,289,o),
(145,326,o),
(189,326,cs),
(234,326,o),
(268,309,o),
(301,292,cs),
(335,275,o),
(367,258,o),
(406,258,cs),
(468,258,o),
(501,302,o),
(531,344,c),
(495,380,l)
);
}
);
width = 600;
}
);
unicode = 126;
},
{
glyphname = exclamdown;
layers = (
{
layerId = m001;
shapes = (
{
closed = 1;
nodes = (
(178,-105,l),
(168,488,l),
(115,488,l),
(104,-105,l)
);
},
{
closed = 1;
nodes = (
(85,564,o),
(110,538,o),
(141,538,cs),
(171,538,o),
(197,564,o),
(197,594,cs),
(197,625,o),
(171,650,o),
(141,650,cs),
(110,650,o),
(85,625,o),
(85,594,cs)
);
}
);
width = 278;
}
);
unicode = 161;
},
{
glyphname = cent;
layers = (
{
layerId = m001;
shapes = (
{
closed = 1;
nodes = (
(114,99,o),
(75,162,o),
(75,236,cs),
(75,349,o),
(149,429,o),
(263,429,cs),
(273,429,o),
(283,428,o),
(295,426,c),
(176,69,l)
);
},
{
closed = 1;
nodes = (
(411,464,l),
(411,412,l),
(393,429,o),
(373,443,o),
(351,452,c),
(397,589,l),
(349,589,l),
(309,469,l),
(290,472,o),
(274,474,o),
(257,474,cs),
(125,474,o),
(25,366,o),
(25,237,cs),
(25,134,o),
(82,60,o),
(161,25,c),
(112,-121,l),
(160,-121,l),
(203,8,l),
(225,2,o),
(246,0,o),
(267,0,cs),
(343,0,o),
(421,41,o),
(463,105,c),
(428,133,l),
(390,84,o),
(330,45,o),
(266,45,cs),
(249,45,o),
(233,47,o),
(217,51,c),
(337,411,l),
(377,391,o),
(404,357,o),
(416,312,c),
(456,312,l),
(456,464,l)
);
}
);
width = 500;
}
);
unicode = 162;
},
{
glyphname = sterling;
layers = (
{
layerId = m001;
shapes = (
{
closed = 1;
nodes = (
(500,0,l),
(8,0,l),
(8,57,l),
(33,57,o),
(84.472,93.271,o),
(95.84,124.409,o),
(103,177,o),
(103,217,q),
(103,354,l),
(-4,354,l),
(-4,402,l),
(103,402,l),
(103,573,l),
(103,658,o),
(218.417,749.647,o),
(389.924,749.647,o),
(493,661,o),
(496,587,q),
(444,587,l),
(443,644,o),
(353,698,o),
(303,698,q),
(264,698,o),
(211.003,665.853,o),
(163,615,o),
(163,585,q),
(163,402,l),
(348,402,l),
(348,354,l),
(163,354,l),
(163,214,l),
(163,158,o),
(149,71,o),
(127,57,q),
(127,53,l),
(500,53,l)
);
}
);
width = 500;
}
);
unicode = 163;
},
{
glyphname = currency;
layers = (
{
layerId = m001;
shapes = (
{
closed = 1;
nodes = (
(140,124,o),
(195,106,o),
(250,106,cs),
(305,106,o),
(360,124,o),
(405,164,c),
(458,106,l),
(496,144,l),
(443,200,l),
(480,246,o),
(496,300,o),
(496,350,cs),
(496,400,o),
(480,454,o),
(443,500,c),
(496,556,l),
(458,594,l),
(405,536,l),
(360,576,o),
(305,594,o),
(250,594,cs),
(195,594,o),
(140,576,o),
(95,536,c),
(42,594,l),
(4,556,l),
(57,500,l),
(20,454,o),
(4,400,o),
(4,350,cs),
(4,300,o),
(20,246,o),
(57,200,c),
(4,144,l),
(42,106,l),
(95,164,l)
);
},
{
closed = 1;
nodes = (
(359,548,o),
(444,456,o),
(444,350,cs),
(444,244,o),
(360,152,o),
(250,152,cs),
(144,152,o),
(56,240,o),
(56,350,cs),
(56,459,o),
(143,548,o),
(250,548,cs)
);
}
);
width = 500;
}
);
unicode = 164;
},
{
glyphname = yen;
layers = (
{
layerId = m001;
shapes = (
{
closed = 1;
nodes = (
(383,49,l),
(290,49,l),
(290,246,l),
(518,246,l),
(518,295,l),
(290,295,l),
(290,314,l),
(338,408,l),
(518,408,l),
(518,457,l),
(361,457,l),
(475,701,l),
(554,701,l),
(554,750,l),
(318,750,l),
(318,701,l),
(412,701,l),
(263,380,l),
(120,701,l),
(218,701,l),
(218,750,l),
(-20,750,l),
(-20,701,l),
(61,701,l),
(170,457,l),
(18,457,l),
(18,408,l),
(192,408,l),
(235,314,l),
(235,295,l),
(18,295,l),
(18,246,l),
(235,246,l),
(235,49,l),
(143,49,l),
(143,0,l),
(383,0,l)
);
}
);
width = 500;
}
);
unicode = 165;
},
{
glyphname = brokenbar;
layers = (
{
layerId = m001;
shapes = (
{
closed = 1;
nodes = (
(133,-70,l),
(133,280,l),
(89,280,l),
(89,-70,l)
);
},
{
closed = 1;
nodes = (
(133,430,l),
(133,780,l),
(89,780,l),
(89,430,l)
);
}
);
width = 222;
}
);
unicode = 166;
},
{
glyphname = section;
layers = (
{
layerId = m001;
shapes = (
{
closed = 1;
nodes = (
(293,199,o),
(261,229,o),
(243,244,cs),
(184,295,o),
(141,344,o),
(120,373,cs),
(103,396,o),
(86,422,o),
(86,451,cs),
(86,499,o),
(133,527,o),
(167,527,cs),
(195,527,o),
(220,517,o),
(241,498,cs),
(283,462,o),
(356,381,o),
(381,350,cs),
(396,333,o),
(414,305,o),
(414,281,cs),
(414,231,o),
(365,199,o),
(318,199,cs)
);
},
{
closed = 1;
nodes = (
(312,639,l),
(357,639,l),
(357,781,l),
(293,781,ls),
(218,781,o),
(116,792,o),
(116,687,cs),
(116,643,o),
(150,599,o),
(178,567,c),
(100,567,o),
(37,524,o),
(37,440,cs),
(37,384,o),
(111,307,o),
(185,233,cs),
(245,168,o),
(334,88,o),
(334,42,cs),
(334,5,o),
(306,-14,o),
(243,-14,cs),
(173,-14,l),
(173,97,l),
(128,97,l),
(128,-60,l),
(221,-60,ls),
(281,-60,o),
(388,-60,o),
(388,36,cs),
(388,86,o),
(355,126,o),
(326,159,c),
(395,156,o),
(463,207,o),
(463,279,cs),
(463,317,o),
(446,352,o),
(417,380,cs),
(400,398,o),
(265,553,o),
(231,585,cs),
(189,624,o),
(170,654,o),
(170,681,cs),
(170,726,o),
(206,735,o),
(254,735,cs),
(312,735,l)
);
}
);
width = 500;
}
);
unicode = 167;
},
{
color = (102,255,102,255);
glyphname = dieresis;
layers = (
{
layerId = m001;
shapes = (
{
closed = 1;
nodes = (
(82,697,l),
(82,762,l),
(17,762,l),
(17,697,l)
);
},
{
closed = 1;
nodes = (
(261,697,l),
(261,762,l),
(196,762,l),
(196,697,l)
);
},
{
closed = 1;
nodes = (
(258,679,o),
(279,702,o),
(279,730,cs),
(279,758,o),
(258,781,o),
(230,781,cs),
(202,781,o),
(181,758,o),
(181,730,cs),
(181,702,o),
(202,679,o),
(230,679,cs)
);
},
{
closed = 1;
nodes = (
(78,679,o),
(99,702,o),
(99,730,cs),
(99,758,o),
(78,781,o),
(50,781,cs),
(22,781,o),
(1,758,o),
(1,730,cs),
(1,702,o),
(22,679,o),
(50,679,cs)
);
}
);
width = 278;
}
);
unicode = 168;
},
{
glyphname = ordfeminine;
layers = (
{
layerId = m001;
shapes = (
{
closed = 1;
nodes = (
(288,305,l),
(288,342,l),
(50,342,l),
(50,305,l)
);
},
{
closed = 1;
nodes = (
(99,442,o),
(74,460,o),
(74,485,cs),
(74,511,o),
(101,530,o),
(141,530,cs),
(166,530,o),
(192,525,o),
(210,520,c),
(210,478,l),
(191,458,o),
(164,442,o),
(134,442,cs)
);
},
{
closed = 1;
nodes = (
(71,644,o),
(105,627,o),
(104,626,c),
(72,645,l)
);
},
{
closed = 1;
nodes = (
(158,410,o),
(190,427,o),
(211,447,c),
(211,415,l),
(288,415,l),
(288,445,l),
(243,445,l),
(243,588,ls),
(243,616,o),
(234,638,o),
(212,652,cs),
(196,662,o),
(176,667,o),
(149,667,cs),
(113,667,o),
(87,660,o),
(72,645,c),
(104,626,l),
(104,626,l),
(112,632,o),
(123,636,o),
(144,636,cs),
(164,636,o),
(180,632,o),
(191,624,cs),
(203,615,o),
(210,601,o),
(210,582,cs),
(210,546,l),
(197,551,o),
(164,558,o),
(137,558,cs),
(81,558,o),
(41,528,o),
(41,482,cs),
(41,439,o),
(75,410,o),
(124,410,cs)
);
}
);
width = 339;
}
);
unicode = 170;
},
{
glyphname = guillemetleft;
layers = (
{
layerId = m001;
shapes = (
{
closed = 1;
nodes = (
(208,77,l),
(271,77,l),
(148,231,l),
(271,385,l),
(208,385,l),
(84,231,l)
);
},
{
closed = 1;
nodes = (
(353,77,l),
(416,77,l),
(293,231,l),
(416,385,l),
(353,385,l),
(229,231,l)
);
}
);
width = 500;
}
);
unicode = 171;
},
{
glyphname = logicalnot;
layers = (
{
layerId = m001;
shapes = (
{
closed = 1;
nodes = (
(527,109,l),
(527,346,l),
(73,346,l),
(73,302,l),
(483,302,l),
(483,109,l)
);
}
);
width = 600;
}
);
unicode = 172;
},
{
color = (102,255,102,255);
glyphname = macron;
layers = (
{
layerId = m001;
shapes = (
{
closed = 1;
nodes = (
(286,595,l),
(286,641,l),
(-9,641,l),
(-9,595,l)
);
}
);
width = 278;
}
);
unicode = 175;
},
{
color = (102,255,102,255);
glyphname = degree;
layers = (
{
layerId = m001;
shapes = (
{
closed = 1;
nodes = (
(148,501,o),
(106,547,o),
(106,600,cs),
(106,652,o),
(148,698,o),
(200,698,cs),
(253,698,o),
(294,652,o),
(294,600,cs),
(294,547,o),
(253,501,o),
(200,501,cs)
);
},
{
closed = 1;
nodes = (
(271,475,o),
(325,529,o),
(325,600,cs),
(325,669,o),
(271,725,o),
(200,725,cs),
(131,725,o),
(75,669,o),
(75,600,cs),
(75,529,o),
(131,475,o),
(200,475,cs)
);
}
);
width = 400;
}
);
unicode = 176;
},
{
glyphname = plusminus;
layers = (
{
layerId = m001;
shapes = (
{
closed = 1;
nodes = (
(290,208,l),
(290,364,l),
(445,364,l),
(445,412,l),
(290,412,l),
(290,568,l),
(240,568,l),
(240,412,l),
(85,412,l),
(85,364,l),
(240,364,l),
(240,208,l)
);
},
{
closed = 1;
nodes = (
(445,76,l),
(445,124,l),
(85,124,l),
(85,76,l)
);
}
);
width = 500;
}
);
unicode = 177;
},
{
glyphname = twosuperior;
layers = (
{
layerId = m001;
shapes = (
{
closed = 1;
nodes = (
(297,393,l),
(257,393,l),
(257,322,l),
(66,322,l),
(179,439,ls),
(221,486,o),
(285,549,o),
(285,617,cs),
(285,682,o),
(224,722,o),
(158,722,cs),
(79,722,o),
(26,672,o),
(26,601,cs),
(26,567,l),
(66,567,l),
(66,609,ls),
(66,656,o),
(105,689,o),
(157,689,cs),
(208,689,o),
(245,666,o),
(245,617,cs),
(245,571,o),
(212,525,o),
(182,492,cs),
(26,322,l),
(26,289,l),
(297,289,l)
);
}
);
width = 300;
}
);
},
{
glyphname = threesuperior;
layers = (
{
layerId = m001;
shapes = (
{
closed = 1;
nodes = (
(25,335,o),
(74,279,o),
(160,279,cs),
(233,279,o),
(291,329,o),
(291,403,cs),
(291,455,o),
(263,492,o),
(210,508,c),
(210,510,l),
(257,526,o),
(289,560,o),
(289,609,cs),
(289,669,o),
(232,722,o),
(160,722,cs),
(83,722,o),
(33,672,o),
(33,593,c),
(73,593,l),
(73,641,o),
(101,689,o),
(160,689,cs),
(205,689,o),
(249,662,o),
(249,606,cs),
(249,566,o),
(214,533,o),
(179,527,cs),
(164,524,o),
(149,524,o),
(134,524,c),
(134,491,l),
(143,491,o),
(155,491,o),
(169,490,cs),
(213,487,o),
(251,457,o),
(251,401,cs),
(251,347,o),
(210,312,o),
(160,312,cs),
(100,312,o),
(65,351,o),
(65,407,c),
(25,407,l)
);
}
);
width = 300;
}
);
},
{
color = (102,255,102,255);
glyphname = acute;
layers = (
{
layerId = m001;
shapes = (
{
closed = 1;
nodes = (
(264,734,l),
(187,734,l),
(76,595,l),
(126,595,l)
);
}
);
width = 278;
}
);
unicode = 180;
},
{
glyphname = mu;
layers = (
{
layerId = m001;
shapes = (
{
closed = 1;
nodes = (
(586,-1,l),
(586,46,l),
(505,46,l),
(505,475,l),
(370,475,l),
(370,427,l),
(452,427,l),
(452,144,l),
(393,86,o),
(338,35,o),
(257,35,cs),
(209,35,o),
(159,61,o),
(159,130,cs),
(159,475,l),
(23,475,l),
(23,427,l),
(107,427,l),
(107,-145,l),
(23,-145,l),
(23,-192,l),
(159,-192,l),
(159,14,l),
(181,-2,o),
(212,-11,o),
(248,-11,cs),
(334,-11,o),
(403,31,o),
(452,88,c),
(452,-1,l)
);
}
);
width = 611;
}
);
unicode = 956;
},
{
glyphname = paragraph;
layers = (
{
layerId = m001;
shapes = (
{
closed = 1;
nodes = (
(519,0,l),
(519,46,l),
(443,46,l),
(443,455,l),
(519,455,l),
(519,501,l),
(214,501,ls),
(112,501,o),
(34,438,o),
(34,349,cs),
(34,252,o),
(109,192,o),
(211,192,cs),
(240,192,o),
(274,192,o),
(291,193,c),
(291,44,l),
(211,44,l),
(211,0,l)
);
},
{
closed = 1;
nodes = (
(338,457,l),
(396,457,l),
(396,44,l),
(338,44,l)
);
}
);
width = 562;
}
);
unicode = 182;
},
{
glyphname = periodcentered;
layers = (
{
layerId = m001;
shapes = (
{
closed = 1;
nodes = (
(281,67,o),
(263,82,o),
(242,82,c),
(218,82,o),
(202,67,o),
(202,42,c),
(202,10,o),
(218,0,o),
(242,0,c),
(265,0,o),
(281,10,o),
(281,42,c)
);
}
);
width = 500;
}
);
unicode = 183;
},
{
glyphname = cedilla;
layers = (
{
layerId = m001;
shapes = (
{
closed = 1;
nodes = (
(81,-207,o),
(125,-207,o),
(158,-201,cs),
(201,-194,o),
(247,-160,o),
(238,-109,cs),
(229,-58,o),
(189,-38,o),
(161,-43,cs),
(146,-46,o),
(137,-49,o),
(127,-55,c),
(124,-54,l),
(151,0,l),
(120,0,l),
(75,-88,l),
(93,-98,l),
(120,-81,o),
(192,-66,o),
(200,-111,cs),
(206,-148,o),
(156,-168,o),
(128,-171,cs),
(110,-173,o),
(85,-169,o),
(68,-166,c),
(49,-198,l)
);
}
);
width = 278;
}
);
unicode = 184;
},
{
glyphname = onesuperior;
layers = (
{
layerId = m001;
shapes = (
{
closed = 1;
nodes = (
(232,322,l),
(178,322,l),
(178,712,l),
(85,712,l),
(85,679,l),
(138,679,l),
(138,322,l),
(83,322,l),
(83,289,l),
(232,289,l)
);
}
);
width = 300;
}
);
},
{
glyphname = ordmasculine;
layers = (
{
layerId = m001;
shapes = (
{
closed = 1;
nodes = (
(290,305,l),
(290,342,l),
(62,342,l),
(62,305,l)
);
},
{
closed = 1;
nodes = (
(254,409,o),
(305,469,o),
(305,540,cs),
(305,612,o),
(254,671,o),
(177,671,cs),
(99,671,o),
(47,611,o),
(47,540,cs),
(47,469,o),
(99,409,o),
(177,409,cs)
);
},
{
closed = 1;
nodes = (
(124,443,o),
(88,484,o),
(88,540,cs),
(88,596,o),
(124,637,o),
(177,637,cs),
(229,637,o),
(264,596,o),
(264,540,cs),
(264,484,o),
(229,443,o),
(177,443,cs)
);
}
);
width = 352;
}
);
unicode = 186;
},
{
glyphname = guillemetright;
layers = (
{
layerId = m001;
shapes = (
{
closed = 1;
nodes = (
(84,385,l),
(207,231,l),
(84,77,l),
(147,77,l),
(271,231,l),
(147,385,l)
);
},
{
closed = 1;
nodes = (
(229,385,l),
(352,231,l),
(229,77,l),
(292,77,l),
(416,231,l),
(292,385,l)
);
}
);
width = 500;
}
);
unicode = 187;
},
{
glyphname = onehalf;
layers = (
{
layerId = m001;
shapes = (
{
closed = 1;
nodes = (
(741,-1,l),
(741,93,l),
(702,93,l),
(702,36,l),
(543,36,l),
(559,79,o),
(600,115,o),
(644,145,cs),
(695,180,o),
(735,209,o),
(735,267,cs),
(735,327,o),
(681,368,o),
(618,368,cs),
(545,368,o),
(500,322,o),
(500,281,cs),
(500,257,o),
(512,241,o),
(533,241,cs),
(550,241,o),
(563,255,o),
(563,271,cs),
(563,283,o),
(556,294,o),
(546,298,c),
(549,309,o),
(574,330,o),
(616,330,cs),
(655,330,o),
(689,303,o),
(689,267,cs),
(689,227,o),
(660,204,o),
(618,174,cs),
(570,140,o),
(514,95,o),
(490,19,c),
(490,19,o),
(501,-1,o),
(502,-1,cs)
);
},
{
closed = 1;
nodes = (
(426,311,l),
(619,628,l),
(586,648,l),
(393,331,l),
(197,8,l),
(230,-12,l)
);
},
{
closed = 1;
nodes = (
(289,281,l),
(289,320,l),
(193,320,l),
(193,645,l),
(172,645,l),
(48,614,l),
(57,575,l),
(150,597,l),
(150,320,l),
(53,320,l),
(53,281,l)
);
}
);
width = 795;
}
);
unicode = 189;
},
{
glyphname = questiondown;
layers = (
{
layerId = m001;
shapes = (
{
closed = 1;
nodes = (
(101,215,o),
(25,117,o),
(25,7,cs),
(25,-105,o),
(107,-200,o),
(222,-200,cs),
(337,-200,o),
(417,-114,o),
(420,-2,c),
(366,-2,l),
(365,-84,o),
(306,-152,o),
(222,-152,cs),
(139,-152,o),
(79,-76,o),
(79,3,cs),
(79,116,o),
(163,178,o),
(271,166,c),
(271,399,l),
(217,399,l),
(217,215,l)
);
},
{
closed = 1;
nodes = (
(300,530,o),
(275,555,o),
(244,555,cs),
(214,555,o),
(188,530,o),
(188,499,cs),
(188,469,o),
(214,443,o),
(244,443,cs),
(275,443,o),
(300,469,o),
(300,499,cs)
);
}
);
width = 444;
}
);
unicode = 191;
},
{
glyphname = AE;
layers = (
{
layerId = m001;
shapes = (
{
closed = 1;
nodes = (
(158,0,l),
(158,53,l),
(82,53,l),
(181,251,l),
(398,251,l),
(398,53,l),
(315,53,l),
(315,0,l),
(806,0,l),
(806,158,l),
(748,158,l),
(748,53,l),
(458,53,l),
(458,331,l),
(695,331,l),
(695,384,l),
(458,384,l),
(458,647,l),
(748,647,l),
(748,541,l),
(806,541,l),
(806,700,l),
(247,700,l),
(247,647,l),
(319,647,l),
(22,53,l),
(-60,53,l),
(-60,0,l)
);
},
{
closed = 1;
nodes = (
(378,647,l),
(398,647,l),
(398,303,l),
(206,303,l)
);
}
);
width = 875;
}
);
unicode = 198;
},
{
color = (181,255,255,255);
glyphname = Eth;
lastChange = "2025-04-02 04:01:23 +0000";
layers = (
{
layerId = m001;
shapes = (
{
closed = 1;
nodes = (
(352,0,ls),
(435,0,o),
(574,58,o),
(674,160,o),
(730,300,o),
(730,383,qs),
(730,455,o),
(674,591,o),
(622,643,qs),
(614,651,o),
(596,667,o),
(588,674,qs),
(518,730,o),
(374,749,o),
(295,749,qs),
(289,749,ls),
(286,749,o),
(284,750,q),
(52,750,l),
(52,700,l),
(140,700,l),
(140,400,l),
(201,400,l),
(201,700,l),
(366,699,ls),
(498,695,o),
(667,520,o),
(667,383,qs),
(667,236,o),
(491,50,o),
(377,50,qs),
(201,50,l),
(201,352,l),
(140,352,l),
(140,50,l),
(52,50,l),
(52,0,l)
);
},
{
closed = 1;
nodes = (
(376,352,l),
(376,400,l),
(201,400,l),
(201,352,l)
);
},
{
closed = 1;
nodes = (
(140,352,l),
(140,400,l),
(52,400,l),
(52,352,l)
);
},
{
ref = D;
}
);
userData = {
public.truetype.instructions = {
assembly = "RTG[ ]	/* RoundToGrid */
SVTCA[1]	/* SetFPVectorToAxis */
NPUSHB[ ]	/* 3 values pushed */
27 35 2
NPUSHB[ ]	/* 2 values pushed */
3 1
NPUSHW[ ]	/* 4 values pushed */
54 26 2 0
CALL[ ]	/* CallFunction */
PUSHB[ ]	/* 1 value pushed */
0
PUSHB[ ]	/* 1 value pushed */
0
NPUSHW[ ]	/* 4 values pushed */
54 18 31 0
CALL[ ]	/* CallFunction */
IUP[1]	/* InterpolateUntPts */
RTG[ ]	/* RoundToGrid */
SVTCA[0]	/* SetFPVectorToAxis */
NPUSHB[ ]	/* 2 values pushed */
6 1
NPUSHB[ ]	/* 5 values pushed */
4 26 34 35 4
NPUSHW[ ]	/* 4 values pushed */
46 5 3 0
CALL[ ]	/* CallFunction */
NPUSHB[ ]	/* 4 values pushed */
2 27 28 3
NPUSHB[ ]	/* 3 values pushed */
24 25 2
NPUSHW[ ]	/* 4 values pushed */
46 1 0 0
CALL[ ]	/* CallFunction */
PUSHW[ ]	/* 1 value pushed */
5
PUSHB[ ]	/* 1 value pushed */
1
MIAP[1]	/* MoveIndirectAbsPt */
NPUSHB[ ]	/* 7 values pushed */
3 4 6 26 34 35 6
PUSHB[ ]	/* 1 value pushed */
1
LOOPCALL[ ]	/* LoopAndCallFunction */
PUSHW[ ]	/* 1 value pushed */
0
PUSHB[ ]	/* 1 value pushed */
4
MIAP[1]	/* MoveIndirectAbsPt */
NPUSHB[ ]	/* 7 values pushed */
1 2 24 25 27 28 6
PUSHB[ ]	/* 1 value pushed */
1
LOOPCALL[ ]	/* LoopAndCallFunction */
IUP[0]	/* InterpolateUntPts */";
formatVersion = "1";
id = 16b4c973b77876a75fba88773167584379442b14d036dffe74a42efd602ea2c9833e9ab940904005fec6957e2442e671ef493e66ede94cd6f63df2ecab53bb06;
};
};
width = 790;
}
);
unicode = 208;
},
{
glyphname = multiply;
layers = (
{
layerId = m001;
shapes = (
{
closed = 1;
nodes = (
(495,1,l),
(527,32,l),
(331,227,l),
(527,423,l),
(495,454,l),
(300,258,l),
(105,454,l),
(73,423,l),
(269,227,l),
(73,32,l),
(106,0,l),
(300,196,l)
);
}
);
width = 600;
}
);
unicode = 215;
},
{
color = (181,255,255,255);
glyphname = Oslash;
layers = (
{
layerId = m001;
shapes = (
{
closed = 1;
nodes = (
(27,374,l),
(35,281,o),
(72,203,o),
(138,140,c),
(131,132,l),
(34,20,l),
(75,-16,l),
(171,96,l),
(179,105,l),
(255,48,o),
(342,24,o),
(439,32,c),
(544,41,o),
(630,86,o),
(698,166,c),
(765,246,o),
(794,337,o),
(785,440,c),
(777,535,o),
(739,614,o),
(670,678,c),
(678,688,l),
(770,793,l),
(728,829,l),
(637,723,l),
(628,713,l),
(553,767,o),
(468,790,o),
(373,782,c),
(268,773,o),
(182,728,o),
(115,648,c),
(48,568,o),
(18,477,o),
(27,375,c)
);
},
{
closed = 1;
nodes = (
(89,379,l),
(81,469,o),
(105,548,o),
(160,617,c),
(215,685,o),
(288,723,o),
(377,730,c),
(458,737,o),
(530,717,o),
(593,671,c),
(175,183,l),
(124,236,o),
(96,302,o),
(89,380,c)
);
},
{
closed = 1;
nodes = (
(731,344,o),
(707,265,o),
(652,198,c),
(597,130,o),
(524,92,o),
(434,84,c),
(351,77,o),
(278,98,o),
(215,147,c),
(634,636,l),
(687,582,o),
(717,515,o),
(724,434,c)
);
}
);
width = 812;
}
);
unicode = 216;
},
{
glyphname = Thorn;
layers = (
{
layerId = m001;
shapes = (
{
closed = 1;
nodes = (
(324,173,ls),
(472,173,o),
(605,232,o),
(605,390,cs),
(605,535,o),
(520,608,o),
(324,608,cs),
(200,608,l),
(200,732,l),
(292,732,l),
(292,780,l),
(54,780,l),
(54,732,l),
(146,732,l),
(146,48,l),
(54,48,l),
(54,0,l),
(292,0,l),
(292,48,l),
(200,48,l),
(200,173,l)
);
},
{
closed = 1;
nodes = (
(313,560,ls),
(441,560,o),
(551,541,o),
(551,390,cs),
(551,264,o),
(454,221,o),
(333,221,cs),
(200,221,l),
(200,560,l)
);
}
);
width = 611;
}
);
unicode = 222;
},
{
color = (255,255,10,255);
glyphname = germandbls;
layers = (
{
layerId = m001;
shapes = (
{
closed = 1;
nodes = (
(259,7,l)
);
},
{
closed = 1;
nodes = (
(457,0,o),
(516,51,o),
(516,141,cs),
(516,216,o),
(480,272,o),
(417,308,cs),
(358,342,o),
(337,351,o),
(337,381,cs),
(337,408,o),
(344,425,o),
(381,461,cs),
(427,506,o),
(446,551,o),
(446,610,cs),
(446,693,o),
(371,755,o),
(288,755,cs),
(232,755,o),
(176,733,o),
(147,689,cs),
(130,662,o),
(119,627,o),
(119,583,cs),
(119,398,l),
(42,398,l),
(42,351,l),
(119,351,l),
(119,47,l),
(48,47,l),
(48,0,l),
(171,0,l),
(171,589,ls),
(171,616,o),
(178,640,o),
(188,659,cs),
(205,689,o),
(244,707,o),
(281,707,cs),
(335,707,o),
(394,665,o),
(394,610,cs),
(394,569,o),
(384,533,o),
(341,492,cs),
(297,448,o),
(286,417,o),
(286,381,cs),
(286,319,o),
(321,302,o),
(389,265,cs),
(442,237,o),
(465,194,o),
(465,141,cs),
(465,76,o),
(428,45,o),
(367,45,c),
(267,45,l),
(267,0,l),
(367,0,l)
);
},
{
pos = (-1,0);
ref = "s(ligature)";
scale = (1.0196,1.0196);
}
);
width = 446;
}
);
unicode = 223;
},
{
glyphname = ae;
layers = (
{
guides = (
{
pos = (457,242);
userData = {
UFO.identifier = BadxzMYoqG;
};
},
{
pos = (266,423);
userData = {
UFO.identifier = bhKhMFMX1H;
};
},
{
pos = (322,53);
userData = {
UFO.identifier = SKbOLhSeNL;
};
},
{
pos = (457,242);
userData = {
UFO.identifier = utF9QhvfgN;
};
},
{
pos = (266,423);
userData = {
UFO.identifier = Ap6zTnUNsp;
};
},
{
pos = (322,53);
userData = {
UFO.identifier = zm6n2k6vas;
};
}
);
layerId = m001;
shapes = (
{
closed = 1;
nodes = (
(505,1,o),
(419,63,o),
(404,102,q),
(399,102,l),
(381,64,o),
(293,1,o),
(234,1,q),
(166,1,o),
(77,72,o),
(77,137,q),
(77,201,o),
(166,272,o),
(244,272,q),
(371,272,l),
(371,328,l),
(371,373,o),
(323,426,o),
(253,428,q),
(159,430,o),
(152,360,q),
(97,360,l),
(102,417,o),
(194,477,o),
(268,477,q),
(316,477,o),
(390,426,o),
(409,394,q),
(413,394,l),
(433,424,o),
(520,477,o),
(564,477,q),
(605,477,o),
(673.142,448.807,o),
(721.553,396.764,o),
(748,321,o),
(748,277,q),
(748,220,l),
(428,220,l),
(428,183,l),
(428,131,o),
(503,53,o),
(579,54,q),
(618,54,o),
(676,86,o),
(682,118,q),
(741,118,l),
(738,99,o),
(715.905,59.901,o),
(675.562,23.592,o),
(610,1,o),
(570,1,q)
);
},
{
closed = 1;
nodes = (
(513,421,o),
(428,341,o),
(428,286,q),
(428,269,l),
(688,269,l),
(688,280,l),
(688,310,o),
(675,364,o),
(646,398,o),
(591,423,o),
(564,421,q)
);
},
{
closed = 1;
nodes = (
(286,46,o),
(371,121,o),
(371,167,q),
(371,220,l),
(231,220,l),
(183,220,o),
(124,176,o),
(124,142,q),
(124,102,o),
(194,46,o),
(236,46,q)
);
}
);
width = 833;
}
);
unicode = 230;
},
{
color = (252,111,207,255);
glyphname = eth;
layers = (
{
layerId = m001;
shapes = (
{
closed = 1;
nodes = (
(169,760,l),
(186,810,l)
);
},
{
closed = 1;
nodes = (
(344,638,l),
(611,339,o),
(438,93,o),
(446,111,c),
(535,217,l),
(561,430,o),
(465,577,o),
(382,672,c),
(489,769,l),
(456,808,l),
(347,709,l),
(308,747,o),
(266,774,o),
(229,793,cs),
(214,800,o),
(199,806,o),
(186,810,c),
(169,760,l),
(170,760,l),
(207,753,o),
(259,723,o),
(309,674,c),
(173,550,l),
(205,510,l)
);
},
{
ref = o;
}
);
width = 584;
}
);
unicode = 240;
},
{
glyphname = divide;
layers = (
{
layerId = m001;
shapes = (
{
closed = 1;
nodes = (
(357,399,l),
(37,399,l),
(37,351,l),
(357,351,l)
);
},
{
closed = 1;
nodes = (
(219,463,o),
(238,483,o),
(238,506,cs),
(238,529,o),
(219,549,o),
(197,549,cs),
(174,549,o),
(155,529,o),
(155,506,cs),
(155,483,o),
(174,463,o),
(197,463,cs)
);
},
{
closed = 1;
nodes = (
(219,201,o),
(238,221,o),
(238,244,cs),
(238,267,o),
(219,287,o),
(197,287,cs),
(174,287,o),
(155,267,o),
(155,244,cs),
(155,221,o),
(174,201,o),
(197,201,cs)
);
}
);
width = 394;
}
);
unicode = 247;
},
{
glyphname = oslash;
layers = (
{
layerId = m001;
shapes = (
{
closed = 1;
nodes = (
(108,5,l),
(551,484,l),
(483,484,l),
(40,5,l)
);
},
{
ref = o;
}
);
width = 584;
}
);
unicode = 248;
},
{
glyphname = thorn;
layers = (
{
layerId = m001;
shapes = (
{
closed = 1;
nodes = (
(211,-199,l),
(211,-149,l),
(124,-149,l),
(124,51,l),
(161,21,o),
(210,2,o),
(261,2,cs),
(393,2,o),
(473,105,o),
(473,223,cs),
(473,353,o),
(382,438,o),
(271,438,cs),
(205,438,o),
(161,409,o),
(124,370,c),
(124,750,l),
(3,750,l),
(3,701,l),
(73,701,l),
(73,-149,l),
(3,-149,l),
(3,-199,l)
);
},
{
closed = 1;
nodes = (
(201,48,o),
(158,71,o),
(124,101,c),
(124,320,l),
(161,361,o),
(207,392,o),
(268,392,cs),
(356,392,o),
(420,322,o),
(419,222,cs),
(418,125,o),
(357,48,o),
(263,48,cs)
);
}
);
width = 523;
}
);
unicode = 254;
},
{
glyphname = dotlessi;
layers = (
{
layerId = m001;
shapes = (
{
closed = 1;
nodes = (
(48,425,l),
(125,425,l),
(125,50,l),
(48,50,l),
(48,0,l),
(262,0,l),
(262,50,l),
(185,50,l),
(185,477,l),
(160,477,o),
(123,477,o),
(123,477,c),
(48,477,l)
);
},
{
closed = 0;
nodes = (
(182,425,l),
(184,477,l)
);
},
{
ref = uni0131;
}
);
width = 297;
}
);
},
{
glyphname = circumflex;
layers = (
{
layerId = m001;
shapes = (
{
closed = 1;
nodes = (
(140,882,l),
(249,781,l),
(284,811,l),
(140,945,l),
(-4,811,l),
(31,781,l)
);
}
);
width = 278;
}
);
unicode = 710;
},
{
glyphname = caron;
layers = (
{
layerId = m001;
shapes = (
{
closed = 1;
nodes = (
(58,699,l),
(-6,699,l),
(116,560,l),
(164,560,l),
(287,699,l),
(222,699,l),
(140,597,l)
);
}
);
width = 278;
}
);
unicode = 711;
},
{
glyphname = breve;
layers = (
{
layerId = m001;
shapes = (
{
closed = 1;
nodes = (
(97,641,o),
(47,674,o),
(41,706,q),
(0,700,l),
(8,650,o),
(71,598,o),
(134,597,qs),
(143,597,ls),
(205,598,o),
(269,650,o),
(277,700,q),
(236,706,l),
(230,674,o),
(180,641,o),
(143,640,q),
(134,640,ls)
);
}
);
userData = {
public.truetype.instructions = {
assembly = "PUSHW[ ]	/* 3 values pushed */
12 0 3
CALL[ ]	/* CallFunction */
PUSHW[ ]	/* 1 value pushed */
0
SRP0[ ]	/* SetRefPoint0 */
PUSHW[ ]	/* 1 value pushed */
2
MDRP[10000]	/* MoveDirectRelPt */
PUSHW[ ]	/* 1 value pushed */
0
SRP0[ ]	/* SetRefPoint0 */
PUSHW[ ]	/* 1 value pushed */
21
MDRP[10000]	/* MoveDirectRelPt */
PUSHW[ ]	/* 1 value pushed */
12
SRP0[ ]	/* SetRefPoint0 */
PUSHW[ ]	/* 1 value pushed */
26
MDRP[11100]	/* MoveDirectRelPt */
SVTCA[0]	/* SetFPVectorToAxis */
PUSHW[ ]	/* 1 value pushed */
7
MDAP[1]	/* MoveDirectAbsPt */
PUSHW[ ]	/* 1 value pushed */
16
MDAP[1]	/* MoveDirectAbsPt */
PUSHW[ ]	/* 3 values pushed */
1 16 7
SRP1[ ]	/* SetRefPoint1 */
SRP2[ ]	/* SetRefPoint2 */
IP[ ]	/* InterpolatePts */
IUP[0]	/* InterpolateUntPts */
IUP[1]	/* InterpolateUntPts */";
formatVersion = "1";
id = cc1503adb73f68d4d49e9c4db5913e40ab3f065df2b8678ba8627ad02e69bf3b87a38b4a8cad740c75af89cb99fa6dcfc280bcef5fe47974aaad4f29b0a8580e;
};
};
width = 277;
}
);
unicode = 728;
},
{
color = (102,255,102,255);
glyphname = dotaccent;
layers = (
{
layerId = m001;
shapes = (
{
closed = 1;
nodes = (
(169,675,o),
(191,699,o),
(191,728,cs),
(191,757,o),
(169,781,o),
(140,781,cs),
(111,781,o),
(89,757,o),
(89,728,cs),
(89,699,o),
(111,675,o),
(140,675,cs)
);
}
);
width = 278;
}
);
unicode = 729;
},
{
glyphname = ring;
layers = (
{
layerId = m001;
shapes = (
{
closed = 1;
nodes = (
(181,542,o),
(221,582,o),
(221,628,cs),
(221,674,o),
(181,713,o),
(136,713,cs),
(89,713,o),
(50,674,o),
(50,628,cs),
(50,582,o),
(89,542,o),
(136,542,cs)
);
},
{
closed = 1;
nodes = (
(104,573,o),
(81,597,o),
(81,628,cs),
(81,658,o),
(104,682,o),
(136,682,cs),
(165,682,o),
(190,658,o),
(190,628,cs),
(190,597,o),
(165,573,o),
(136,573,cs)
);
}
);
width = 278;
}
);
unicode = 730;
},
{
color = (102,255,102,255);
glyphname = ogonek;
layers = (
{
layerId = m001;
shapes = (
{
closed = 1;
nodes = (
(203.006,-218,o),
(245.006,-183,o),
(256.006,-169,c),
(232.006,-141,l),
(215.006,-158,o),
(191.006,-178,o),
(160.006,-186,cs),
(123.006,-195,o),
(97.006,-179,o),
(88.006,-149,cs),
(73.006,-99,o),
(127.006,-37,o),
(194.006,1,c),
(134.006,1,l),
(73.006,-38,o),
(28.006,-107,o),
(46.006,-170,cs),
(61.006,-222,o),
(103.006,-246,o),
(168.006,-227,cs)
);
}
);
width = 282;
}
);
unicode = 731;
},
{
glyphname = tilde;
layers = (
{
layerId = m001;
shapes = (
{
closed = 1;
nodes = (
(251,650,o),
(291,699,o),
(293,756,c),
(248,762,l),
(244,729,o),
(229,704,o),
(205,704,cs),
(191,704,o),
(180,711,o),
(158,729,cs),
(134,749,o),
(109,768,o),
(70,768,cs),
(27,768,o),
(-13,719,o),
(-15,662,c),
(30,656,l),
(34,689,o),
(49,714,o),
(73,714,cs),
(87,714,o),
(98,707,o),
(120,689,cs),
(144,669,o),
(169,650,o),
(208,650,cs)
);
}
);
width = 278;
}
);
unicode = 732;
},
{
glyphname = hungarumlaut;
layers = (
{
layerId = m001;
shapes = (
{
closed = 1;
nodes = (
(104,734,l),
(8,595,l),
(58,595,l),
(181,734,l)
);
},
{
closed = 1;
nodes = (
(258,734,l),
(147,595,l),
(197,595,l),
(335,734,l)
);
}
);
width = 278;
}
);
unicode = 733;
},
{
glyphname = quoteleft;
layers = (
{
layerId = m001;
shapes = (
{
closed = 1;
nodes = (
(177,538,l),
(121,538,l),
(55,750,l),
(111,750,l),
(177,538,l)
);
}
);
userData = {
public.truetype.instructions = {
assembly = "RTG[ ]	/* RoundToGrid */
SVTCA[1]	/* SetFPVectorToAxis */
PUSHB[ ]	/* 1 value pushed */
0
NPUSHB[ ]	/* 2 values pushed */
4 1
NPUSHW[ ]	/* 4 values pushed */
122 2 0 0
CALL[ ]	/* CallFunction */
IUP[1]	/* InterpolateUntPts */
RTG[ ]	/* RoundToGrid */
SVTCA[0]	/* SetFPVectorToAxis */
NPUSHB[ ]	/* 2 values pushed */
2 1
NPUSHB[ ]	/* 3 values pushed */
3 4 2
NPUSHW[ ]	/* 4 values pushed */
212 1 0 0
CALL[ ]	/* CallFunction */
IUP[0]	/* InterpolateUntPts */";
formatVersion = "1";
id = "w250l57-108l123+104l179+104l113-108l57-108|";
};
};
width = 250;
}
);
unicode = 8216;
},
{
glyphname = quoteright;
layers = (
{
layerId = m001;
shapes = (
{
closed = 1;
nodes = (
(123,750,l),
(179,750,l),
(113,538,l),
(57,538,l),
(57,538,l)
);
}
);
userData = {
public.truetype.instructions = {
assembly = "RTG[ ]	/* RoundToGrid */
SVTCA[1]	/* SetFPVectorToAxis */
PUSHB[ ]	/* 1 value pushed */
0
NPUSHB[ ]	/* 2 values pushed */
4 1
NPUSHW[ ]	/* 4 values pushed */
122 2 0 0
CALL[ ]	/* CallFunction */
IUP[1]	/* InterpolateUntPts */
RTG[ ]	/* RoundToGrid */
SVTCA[0]	/* SetFPVectorToAxis */
NPUSHB[ ]	/* 2 values pushed */
2 1
NPUSHB[ ]	/* 3 values pushed */
3 4 2
NPUSHW[ ]	/* 4 values pushed */
212 1 0 0
CALL[ ]	/* CallFunction */
IUP[0]	/* InterpolateUntPts */";
formatVersion = "1";
id = "w250l57-108l123+104l179+104l113-108l57-108|";
};
};
width = 250;
}
);
unicode = 8217;
},
{
glyphname = minus;
layers = (
{
layerId = m001;
shapes = (
{
closed = 1;
nodes = (
(355,257,l),
(355,207,l),
(28,207,l),
(28,257,l),
(28,257,l)
);
}
);
userData = {
public.truetype.instructions = {
assembly = "RTG[ ]	/* RoundToGrid */
SVTCA[1]	/* SetFPVectorToAxis */
NPUSHB[ ]	/* 2 values pushed */
2 1
NPUSHB[ ]	/* 3 values pushed */
3 4 2
NPUSHW[ ]	/* 4 values pushed */
248 1 0 0
CALL[ ]	/* CallFunction */
IUP[1]	/* InterpolateUntPts */
RTG[ ]	/* RoundToGrid */
SVTCA[0]	/* SetFPVectorToAxis */
NPUSHB[ ]	/* 3 values pushed */
1 4 2
NPUSHB[ ]	/* 2 values pushed */
3 1
NPUSHW[ ]	/* 4 values pushed */
46 0 2 0
CALL[ ]	/* CallFunction */
IUP[0]	/* InterpolateUntPts */";
formatVersion = "1";
id = "w333l42+257l290+257l290+207l42+207l42+257|";
};
};
width = 383;
}
);
unicode = 8722;
},
{
glyphname = Dcroat;
lastChange = "2025-04-02 04:01:23 +0000";
layers = (
{
layerId = m001;
shapes = (
{
closed = 1;
nodes = (
(376,352,l),
(376,400,l),
(52,400,l),
(52,352,l)
);
},
{
ref = D;
userData = {
identifier = 07FB2E64;
};
}
);
width = 790;
}
);
unicode = 272;
},
{
color = (181,255,255,255);
glyphname = Hbar;
layers = (
{
layerId = m001;
shapes = (
{
closed = 1;
nodes = (
(187,700,l),
(262,700,l),
(262,750,l),
(52,750,l),
(52,700,l),
(127,700,l),
(127,50,l),
(52,50,l),
(52,0,l),
(262,0,l),
(262,50,l),
(187,50,l),
(187,323,l),
(562,323,l),
(562,50,l),
(487,50,l),
(487,0,l),
(697,0,l),
(697,50,l),
(622,50,l),
(622,700,l),
(697,700,l),
(697,750,l),
(487,750,l),
(487,700,l),
(562,700,l),
(562,375,l),
(187,375,l)
);
},
{
closed = 1;
nodes = (
(122,517,l),
(628,517,l),
(696,517,l),
(696,565,l),
(628,565,l),
(571,565,l),
(179,565,l),
(122,565,l),
(54,565,l),
(54,517,l)
);
},
{
closed = 1;
nodes = (
(571,517,l),
(179,517,l)
);
}
);
width = 749;
}
);
unicode = 294;
},
{
glyphname = hbar;
layers = (
{
layerId = m001;
shapes = (
{
closed = 1;
nodes = (
(33,623,l),
(33,575,l),
(105,575,l),
(157,575,l),
(320,575,l),
(320,623,l),
(157,623,l),
(105,623,l)
);
},
{
ref = h;
}
);
width = 595;
}
);
unicode = 295;
},
{
glyphname = dotlessj;
layers = (
{
layerId = m001;
shapes = (
{
closed = 1;
nodes = (
(-67,-172,o),
(-35,-200,o),
(21,-200,cs),
(79,-200,o),
(127,-170,o),
(150,-102,cs),
(161,-68,o),
(168,-26,o),
(168,30,cs),
(168,475,l),
(20,475,l),
(20,424,l),
(108,424,l),
(108,21,ls),
(108,-23,o),
(103,-58,o),
(96,-83,cs),
(83,-131,o),
(57,-149,o),
(25,-149,cs),
(18,-149,o),
(-13,-151,o),
(-33,-116,c),
(-77,-136,l)
);
}
);
width = 219;
}
);
unicode = 567;
},
{
glyphname = endash;
layers = (
{
layerId = m001;
shapes = (
{
closed = 1;
nodes = (
(495,257,l),
(495,207,l),
(28,207,l),
(28,257,l),
(28,257,l)
);
}
);
width = 523;
}
);
unicode = 8211;
},
{
glyphname = emdash;
layers = (
{
layerId = m001;
shapes = (
{
closed = 1;
nodes = (
(835,257,l),
(835,207,l),
(28,207,l),
(28,257,l),
(28,257,l)
);
}
);
userData = {
public.truetype.instructions = {
assembly = "RTG[ ]	/* RoundToGrid */
SVTCA[1]	/* SetFPVectorToAxis */
NPUSHB[ ]	/* 2 values pushed */
2 1
NPUSHB[ ]	/* 3 values pushed */
3 4 2
NPUSHW[ ]	/* 4 values pushed */
248 1 0 0
CALL[ ]	/* CallFunction */
IUP[1]	/* InterpolateUntPts */
RTG[ ]	/* RoundToGrid */
SVTCA[0]	/* SetFPVectorToAxis */
NPUSHB[ ]	/* 3 values pushed */
1 4 2
NPUSHB[ ]	/* 2 values pushed */
3 1
NPUSHW[ ]	/* 4 values pushed */
46 0 2 0
CALL[ ]	/* CallFunction */
IUP[0]	/* InterpolateUntPts */";
formatVersion = "1";
id = "w333l42+257l290+257l290+207l42+207l42+257|";
};
};
width = 863;
}
);
unicode = 8212;
},
{
glyphname = dblquoteleft;
layers = (
{
layerId = m001;
shapes = (
{
closed = 1;
nodes = (
(310,538,l),
(254,538,l),
(188,750,l),
(244,750,l),
(310,538,l)
);
},
{
closed = 1;
nodes = (
(170,538,l),
(114,538,l),
(48,750,l),
(104,750,l),
(170,538,l)
);
}
);
userData = {
public.truetype.instructions = {
assembly = "RTG[ ]	/* RoundToGrid */
SVTCA[1]	/* SetFPVectorToAxis */
PUSHB[ ]	/* 1 value pushed */
0
NPUSHB[ ]	/* 2 values pushed */
4 1
NPUSHW[ ]	/* 4 values pushed */
122 2 0 0
CALL[ ]	/* CallFunction */
IUP[1]	/* InterpolateUntPts */
RTG[ ]	/* RoundToGrid */
SVTCA[0]	/* SetFPVectorToAxis */
NPUSHB[ ]	/* 2 values pushed */
2 1
NPUSHB[ ]	/* 3 values pushed */
3 4 2
NPUSHW[ ]	/* 4 values pushed */
212 1 0 0
CALL[ ]	/* CallFunction */
IUP[0]	/* InterpolateUntPts */";
formatVersion = "1";
id = "w250l57-108l123+104l179+104l113-108l57-108|";
};
};
width = 358;
}
);
},
{
glyphname = dblquoteright;
layers = (
{
layerId = m001;
shapes = (
{
closed = 1;
nodes = (
(114,750,l),
(170,750,l),
(104,538,l),
(48,538,l),
(48,538,l)
);
},
{
closed = 1;
nodes = (
(254,750,l),
(310,750,l),
(244,538,l),
(188,538,l),
(188,538,l)
);
}
);
userData = {
public.truetype.instructions = {
assembly = "RTG[ ]	/* RoundToGrid */
SVTCA[1]	/* SetFPVectorToAxis */
PUSHB[ ]	/* 1 value pushed */
0
NPUSHB[ ]	/* 2 values pushed */
4 1
NPUSHW[ ]	/* 4 values pushed */
122 2 0 0
CALL[ ]	/* CallFunction */
IUP[1]	/* InterpolateUntPts */
RTG[ ]	/* RoundToGrid */
SVTCA[0]	/* SetFPVectorToAxis */
NPUSHB[ ]	/* 2 values pushed */
2 1
NPUSHB[ ]	/* 3 values pushed */
3 4 2
NPUSHW[ ]	/* 4 values pushed */
212 1 0 0
CALL[ ]	/* CallFunction */
IUP[0]	/* InterpolateUntPts */";
formatVersion = "1";
id = "w250l57-108l123+104l179+104l113-108l57-108|";
};
};
width = 358;
}
);
},
{
glyphname = hungarumlaut.case;
layers = (
{
layerId = m001;
shapes = (
{
closed = 1;
nodes = (
(104,649,l),
(8,510,l),
(58,510,l),
(181,649,l)
);
},
{
closed = 1;
nodes = (
(258,649,l),
(147,510,l),
(197,510,l),
(335,649,l)
);
}
);
width = 278;
}
);
},
{
glyphname = caron.case;
layers = (
{
layerId = m001;
shapes = (
{
closed = 1;
nodes = (
(58,700,l),
(-6,700,l),
(116,561,l),
(164,561,l),
(287,700,l),
(222,700,l),
(140,598,l)
);
}
);
width = 278;
}
);
},
{
glyphname = breve.case;
layers = (
{
layerId = m001;
shapes = (
{
closed = 1;
nodes = (
(-2,643,o),
(56,594,o),
(132,594,cs),
(214,594,o),
(273,638,o),
(282,721,c),
(245,721,l),
(234,671,o),
(194,640,o),
(143,640,cs),
(87,640,o),
(43,662,o),
(33,721,c),
(-5,721,l)
);
}
);
width = 278;
}
);
},
{
glyphname = dotaccent.case;
layers = (
{
layerId = m001;
shapes = (
{
closed = 1;
nodes = (
(171,598,l),
(171,700,l),
(106,700,l),
(106,598,l)
);
}
);
width = 278;
}
);
},
{
glyphname = ring.case;
layers = (
{
layerId = m001;
shapes = (
{
closed = 1;
nodes = (
(194,509,o),
(241,556,o),
(241,611,cs),
(241,666,o),
(194,713,o),
(139,713,cs),
(84,713,o),
(37,666,o),
(37,611,cs),
(37,556,o),
(84,509,o),
(139,509,cs)
);
},
{
closed = 1;
nodes = (
(102,546,o),
(74,574,o),
(74,611,cs),
(74,647,o),
(102,676,o),
(139,676,cs),
(175,676,o),
(204,647,o),
(204,611,cs),
(204,574,o),
(175,546,o),
(139,546,cs)
);
}
);
width = 278;
}
);
},
{
glyphname = ogonek.case;
layers = (
{
layerId = m001;
shapes = (
{
closed = 1;
nodes = (
(209,-164,o),
(185,-173,o),
(167,-173,cs),
(128,-173,o),
(86,-164,o),
(86,-117,cs),
(86,-61,o),
(177,-24,o),
(225,0,c),
(179,0,l),
(99,-27,o),
(38,-61,o),
(38,-130,cs),
(38,-182,o),
(91,-208,o),
(143,-208,cs),
(176,-208,o),
(210,-202,o),
(240,-188,c),
(225,-158,l)
);
}
);
width = 278;
}
);
},
{
color = (180,255,255,255);
glyphname = Q.alt;
layers = (
{
guides = (
{
pos = (2910,-155);
}
);
layerId = m001;
shapes = (
{
closed = 1;
nodes = (
(34,530,o),
(256,752,o),
(414,752,q),
(572,752,o),
(795,530,o),
(795,375,q),
(795,221,o),
(572,-1,o),
(414,-1,q),
(256,-1,o),
(34,221,o),
(34,375,q),
(34,376,l)
);
},
{
closed = 1;
nodes = (
(93,239,o),
(279,51,o),
(414,51,q),
(549,51,o),
(736,239,o),
(736,375,q),
(736,511,o),
(549,700,o),
(414,700,q),
(279,700,o),
(93,511,o),
(93,375,q),
(93,376,l)
);
},
{
closed = 1;
nodes = (
(446,260,l),
(482,295,l),
(812,-35,l),
(777,-70,l),
(777,-70,l)
);
}
);
width = 796;
}
);
},
{
glyphname = oe;
layers = (
{
layerId = m001;
shapes = (
{
closed = 1;
nodes = (
(408,97,l),
(431,50,o),
(488,1,o),
(570,1,c),
(597,1,o),
(621,5,o),
(643,13,c),
(665,20,o),
(683,30,o),
(696,42,c),
(709,54,o),
(720,67,o),
(727,80,c),
(734,93,o),
(739,105,o),
(741,118,c),
(682,118,l),
(674,75,o),
(631,54,o),
(579,54,c),
(477,53,o),
(428,113,o),
(428,183,c),
(428,220,l),
(750,220,l),
(750,277,l),
(750,306,o),
(746,334,o),
(737,359,c),
(728,384,o),
(714,406,o),
(698,423,c),
(681,440,o),
(662,454,o),
(639,463,c),
(616,472,o),
(591,477,o),
(564,477,c),
(505,477,o),
(452,436,o),
(408,381,c),
(408,381,l),
(368,436,o),
(314,476,o),
(240,476,c),
(126,476,o),
(44,396,o),
(44,274,c),
(44,200,l),
(44,74,o),
(122,-1,o),
(240,-1,c),
(308,-1,o),
(376,43,o),
(408,97,c)
);
},
{
closed = 1;
nodes = (
(365,357,o),
(383,318,o),
(383,268,c),
(383,205,l),
(383,107,o),
(317,46,o),
(230,46,c),
(201,46,o),
(177,52,o),
(156,65,c),
(135,77,o),
(120,97,o),
(108,122,c),
(96,145,o),
(92,174,o),
(92,205,c),
(92,268,l),
(92,317,o),
(106,356,o),
(134,385,c),
(164,414,o),
(199,429,o),
(240,429,c),
(282,429,o),
(316,414,o),
(340,386,c)
);
},
{
closed = 1;
nodes = (
(701,318,o),
(704,298,o),
(704,277,c),
(704,265,l),
(427,265,l),
(427,283,l),
(427,322,o),
(442,355,o),
(473,384,c),
(503,413,o),
(536,427,o),
(572,427,c),
(591,428,o),
(610,425,o),
(630,416,c),
(649,406,o),
(664,396,o),
(675,384,c),
(684,372,o),
(692,356,o),
(697,337,c)
);
}
);
width = 792;
}
);
unicode = 339;
},
{
color = (252,111,207,127);
glyphname = trademark;
layers = (
{
layerId = m001;
shapes = (
{
closed = 1;
nodes = (
(371,413,l),
(371,446,l),
(339,446,l),
(339,609,l),
(416,443,l),
(433,443,l),
(509,609,l),
(509,446,l),
(477,446,l),
(477,413,l),
(575,413,l),
(575,446,l),
(540,446,l),
(540,625,l),
(578,625,l),
(578,658,l),
(498,658,l),
(425,499,l),
(353,658,l),
(273,658,l),
(273,625,l),
(310,625,l),
(310,446,l),
(275,446,l),
(275,413,l)
);
},
{
closed = 1;
nodes = (
(179,413,l),
(179,446,l),
(142,446,l),
(142,627,l),
(206,627,l),
(206,590,l),
(241,590,l),
(241,658,l),
(8,658,l),
(8,590,l),
(42,590,l),
(42,627,l),
(107,627,l),
(107,446,l),
(69,446,l),
(69,413,l)
);
},
{
ref = TM;
}
);
width = 500;
}
);
unicode = 8482;
},
{
glyphname = euro;
layers = (
{
layerId = m001;
shapes = (
{
closed = 1;
nodes = (
(633,561,l),
(585,539,l)
);
},
{
closed = 1;
nodes = (
(123,376,l),
(121,359,o),
(120,342,o),
(120,325,cs),
(120,306,o),
(121,288,o),
(123,270,c),
(33,270,l),
(33,222,l),
(131,222,l),
(163,88,o),
(259,-12,o),
(413,-12,cs),
(509,-12,o),
(591,26,o),
(641,83,c),
(605,121,l),
(550,68,o),
(494,40,o),
(414,40,cs),
(292,40,o),
(219,116,o),
(191,222,c),
(453,222,l),
(453,270,l),
(181,270,l),
(179,288,o),
(178,307,o),
(178,326,cs),
(178,343,o),
(179,360,o),
(180,376,c),
(453,376,l),
(453,424,l),
(189,424,l),
(218,549,o),
(307,618,o),
(425,618,cs),
(502,618,o),
(573,570,o),
(585,539,c),
(633,561,l),
(602,621,o),
(521,669,o),
(427,669,cs),
(284,669,o),
(165,581,o),
(130,424,c),
(33,424,l),
(33,376,l)
);
}
);
width = 713;
}
);
unicode = 8364;
},
{
glyphname = "equal==";
layers = (
{
layerId = m001;
shapes = (
{
closed = 1;
nodes = (
(357,306,l),
(357,354,l),
(37,354,l),
(37,306,l)
);
},
{
closed = 1;
nodes = (
(357,157,l),
(357,205,l),
(37,205,l),
(37,157,l)
);
}
);
width = 394;
}
);
},
{
glyphname = number;
layers = (
{
layerId = m001;
shapes = (
{
closed = 1;
nodes = (
(178,451,l),
(146,242,l),
(-3,242,l),
(-3,197,l),
(139,197,l),
(109,0,l),
(159,0,l),
(189,197,l),
(326,197,l),
(297,0,l),
(347,0,l),
(377,197,l),
(524,197,l),
(524,242,l),
(384,242,l),
(416,451,l),
(567,451,l),
(567,496,l),
(422,496,l),
(454,700,l),
(404,700,l),
(372,496,l),
(235,496,l),
(267,700,l),
(217,700,l),
(185,496,l),
(41,496,l),
(41,451,l)
);
},
{
closed = 1;
nodes = (
(366,451,l),
(334,242,l),
(196,242,l),
(228,451,l)
);
}
);
width = 569;
}
);
},
{
glyphname = circle;
layers = (
{
layerId = m001;
shapes = (
{
closed = 1;
nodes = (
(579,-12,o),
(725,141,o),
(725,329,cs),
(725,517,o),
(579,670,o),
(391,670,cs),
(203,670,o),
(57,517,o),
(57,329,cs),
(57,141,o),
(203,-12,o),
(391,-12,cs)
);
},
{
closed = 1;
nodes = (
(226,21,o),
(95,160,o),
(95,329,cs),
(95,498,o),
(226,637,o),
(391,637,cs),
(556,637,o),
(687,498,o),
(687,329,cs),
(687,160,o),
(556,21,o),
(391,21,cs)
);
}
);
width = 782;
}
);
},
{
color = (180,255,255,255);
glyphname = a.alt;
layers = (
{
layerId = m001;
shapes = (
{
closed = 1;
nodes = (
(144,37,o),
(110,72,o),
(110,117,cs),
(110,162,o),
(146,198,o),
(220,198,cs),
(265,198,o),
(302,188,o),
(336,177,c),
(336,106,l),
(304,69,o),
(267,37,o),
(210,37,cs)
);
},
{
closed = 1;
nodes = (
(144,360,l),
(104,392,l)
);
},
{
closed = 1;
nodes = (
(257,-8,o),
(303,21,o),
(338,57,c),
(338,0,l),
(455,0,l),
(455,46,l),
(385,46,l),
(385,299,ls),
(385,331,o),
(375,360,o),
(354,382,cs),
(327,411,o),
(283,428,o),
(226,428,cs),
(172,428,o),
(130,413,o),
(104,392,c),
(144,360,l),
(144,360,l),
(160,371,o),
(180,382,o),
(220,382,cs),
(265,382,o),
(297,368,o),
(316,347,cs),
(329,332,o),
(336,311,o),
(336,287,cs),
(336,217,l),
(316,226,o),
(264,241,o),
(218,241,cs),
(127,241,o),
(59,190,o),
(59,114,cs),
(59,44,o),
(115,-8,o),
(200,-8,cs)
);
}
);
width = 485;
}
);
},
{
color = (180,255,255,255);
glyphname = germandbls.alt;
layers = (
{
layerId = m001;
shapes = (
{
closed = 1;
nodes = (
(24,45,l),
(24,0,l),
(150,0,l),
(150,45,l),
(150,45,l),
(150,319,ls),
(150,383,o),
(145,547,o),
(160,600,cs),
(179,665,o),
(219,693,o),
(288,693,cs),
(360,693,o),
(422,640,o),
(422,568,cs),
(422,463,o),
(359,420,o),
(259,420,c),
(259,375,l),
(382,382,o),
(464,323,o),
(464,193,cs),
(464,132,o),
(440,35,o),
(363,35,cs),
(333,35,o),
(320,45,o),
(294,61,c),
(266,22,l),
(290,3,o),
(321,-10,o),
(363,-10,cs),
(464,-10,o),
(514,90,o),
(514,193,cs),
(514,273,o),
(467,392,o),
(375,403,c),
(375,405,l),
(441,432,o),
(472,488,o),
(472,568,cs),
(472,662,o),
(392,738,o),
(288,738,cs),
(154,738,o),
(100,646,o),
(100,524,cs),
(100,45,l)
);
}
);
width = 556;
}
);
},
{
color = (252,111,207,255);
glyphname = fraction;
layers = (
{
layerId = m001;
shapes = (
{
closed = 1;
nodes = (
(426,311,l),
(619,628,l),
(586,648,l),
(393,331,l),
(197,8,l),
(230,-12,l)
);
}
